<svg xmlns="http://www.w3.org/2000/svg" xmlns:xlink="http://www.w3.org/1999/xlink" contentStyleType="text/css" data-diagram-type="SEQUENCE" height="538px" preserveAspectRatio="none" style="width:1113px;height:538px;background:#FFFFFF;" version="1.1" viewBox="0 0 1113 538" width="1113px" zoomAndPan="magnify"><defs/><g><g><title>BookingServiceImpl</title><rect fill="#90EE90" height="417.5938" style="stroke:#181818;stroke-width:1;" width="10" x="339.8931" y="67.4297"/></g><g><title>CargoRepository</title><rect fill="#ADD8E6" height="29.1328" style="stroke:#181818;stroke-width:1;" width="10" x="502.9668" y="96.5625"/></g><g><title>CargoRepository</title><rect fill="#ADD8E6" height="14" style="stroke:#181818;stroke-width:1;" width="10" x="502.9668" y="457.0234"/></g><g><title>Cargo</title><rect fill="#FFB6C1" height="273.0625" style="stroke:#181818;stroke-width:1;" width="10" x="611.2539" y="154.8281"/></g><g><title>RouteSpecification</title><rect fill="#FFB6C1" height="29.1328" style="stroke:#181818;stroke-width:1;" width="10" x="828.0938" y="226.0938"/></g><g><title>Itinerary</title><rect fill="#FFB6C1" height="29.1328" style="stroke:#181818;stroke-width:1;" width="10" x="965.8813" y="284.3594"/></g><g><title>Delivery</title><rect fill="#FFB6C1" height="29.1328" style="stroke:#181818;stroke-width:1;" width="10" x="1061.5254" y="384.7578"/></g><g><title>BookingServiceImpl</title><rect fill="#000000" fill-opacity="0.00000" height="466.7266" width="8" x="340.8931" y="36.2969"/><line style="stroke:#181818;stroke-width:0.5;stroke-dasharray:5.0,5.0;" x1="344.0347" x2="344.0347" y1="36.2969" y2="503.0234"/></g><g><title>CargoRepository</title><rect fill="#000000" fill-opacity="0.00000" height="466.7266" width="8" x="503.9668" y="36.2969"/><line style="stroke:#181818;stroke-width:0.5;stroke-dasharray:5.0,5.0;" x1="507.7515" x2="507.7515" y1="36.2969" y2="503.0234"/></g><g><title>Cargo</title><rect fill="#000000" fill-opacity="0.00000" height="466.7266" width="8" x="612.2539" y="36.2969"/><line style="stroke:#181818;stroke-width:0.5;stroke-dasharray:5.0,5.0;" x1="616.1821" x2="616.1821" y1="36.2969" y2="503.0234"/></g><g><title>RouteSpecification</title><rect fill="#000000" fill-opacity="0.00000" height="466.7266" width="8" x="829.0938" y="36.2969"/><line style="stroke:#181818;stroke-width:0.5;stroke-dasharray:5.0,5.0;" x1="832.2354" x2="832.2354" y1="36.2969" y2="503.0234"/></g><g><title>Itinerary</title><rect fill="#000000" fill-opacity="0.00000" height="466.7266" width="8" x="966.8813" y="36.2969"/><line style="stroke:#181818;stroke-width:0.5;stroke-dasharray:5.0,5.0;" x1="969.9521" x2="969.9521" y1="36.2969" y2="503.0234"/></g><g><title>Delivery</title><rect fill="#000000" fill-opacity="0.00000" height="466.7266" width="8" x="1062.5254" y="36.2969"/><line style="stroke:#181818;stroke-width:0.5;stroke-dasharray:5.0,5.0;" x1="1065.8105" x2="1065.8105" y1="36.2969" y2="503.0234"/></g><g class="participant participant-head" data-participant="bs"><rect fill="#90EE90" height="30.2969" rx="2.5" ry="2.5" style="stroke:#181818;stroke-width:0.5;" width="165.7168" x="262.0347" y="5"/><text fill="#000000" font-family="Courier" font-size="14" lengthAdjust="spacing" textLength="151.7168" x="269.0347" y="24.9951">BookingServiceImpl</text></g><g class="participant participant-tail" data-participant="bs"><rect fill="#90EE90" height="30.2969" rx="2.5" ry="2.5" style="stroke:#181818;stroke-width:0.5;" width="165.7168" x="262.0347" y="502.0234"/><text fill="#000000" font-family="Courier" font-size="14" lengthAdjust="spacing" textLength="151.7168" x="269.0347" y="522.0186">BookingServiceImpl</text></g><g class="participant participant-head" data-participant="cr"><rect fill="#ADD8E6" height="30.2969" rx="2.5" ry="2.5" style="stroke:#181818;stroke-width:0.5;" width="140.4307" x="437.7515" y="5"/><text fill="#000000" font-family="Courier" font-size="14" lengthAdjust="spacing" textLength="126.4307" x="444.7515" y="24.9951">CargoRepository</text></g><g class="participant participant-tail" data-participant="cr"><rect fill="#ADD8E6" height="30.2969" rx="2.5" ry="2.5" style="stroke:#181818;stroke-width:0.5;" width="140.4307" x="437.7515" y="502.0234"/><text fill="#000000" font-family="Courier" font-size="14" lengthAdjust="spacing" textLength="126.4307" x="444.7515" y="522.0186">CargoRepository</text></g><g class="participant participant-head" data-participant="c"><rect fill="#FFB6C1" height="30.2969" rx="2.5" ry="2.5" style="stroke:#181818;stroke-width:0.5;" width="56.1436" x="588.1821" y="5"/><text fill="#000000" font-family="Courier" font-size="14" lengthAdjust="spacing" textLength="42.1436" x="595.1821" y="24.9951">Cargo</text></g><g class="participant participant-tail" data-participant="c"><rect fill="#FFB6C1" height="30.2969" rx="2.5" ry="2.5" style="stroke:#181818;stroke-width:0.5;" width="56.1436" x="588.1821" y="502.0234"/><text fill="#000000" font-family="Courier" font-size="14" lengthAdjust="spacing" textLength="42.1436" x="595.1821" y="522.0186">Cargo</text></g><g class="participant participant-head" data-participant="rs"><rect fill="#FFB6C1" height="30.2969" rx="2.5" ry="2.5" style="stroke:#181818;stroke-width:0.5;" width="165.7168" x="750.2354" y="5"/><text fill="#000000" font-family="Courier" font-size="14" lengthAdjust="spacing" textLength="151.7168" x="757.2354" y="24.9951">RouteSpecification</text></g><g class="participant participant-tail" data-participant="rs"><rect fill="#FFB6C1" height="30.2969" rx="2.5" ry="2.5" style="stroke:#181818;stroke-width:0.5;" width="165.7168" x="750.2354" y="502.0234"/><text fill="#000000" font-family="Courier" font-size="14" lengthAdjust="spacing" textLength="151.7168" x="757.2354" y="522.0186">RouteSpecification</text></g><g class="participant participant-head" data-participant="i"><rect fill="#FFB6C1" height="30.2969" rx="2.5" ry="2.5" style="stroke:#181818;stroke-width:0.5;" width="89.8584" x="925.9521" y="5"/><text fill="#000000" font-family="Courier" font-size="14" lengthAdjust="spacing" textLength="75.8584" x="932.9521" y="24.9951">Itinerary</text></g><g class="participant participant-tail" data-participant="i"><rect fill="#FFB6C1" height="30.2969" rx="2.5" ry="2.5" style="stroke:#181818;stroke-width:0.5;" width="89.8584" x="925.9521" y="502.0234"/><text fill="#000000" font-family="Courier" font-size="14" lengthAdjust="spacing" textLength="75.8584" x="932.9521" y="522.0186">Itinerary</text></g><g class="participant participant-head" data-participant="d"><rect fill="#FFB6C1" height="30.2969" rx="2.5" ry="2.5" style="stroke:#181818;stroke-width:0.5;" width="81.4297" x="1025.8105" y="5"/><text fill="#000000" font-family="Courier" font-size="14" lengthAdjust="spacing" textLength="67.4297" x="1032.8105" y="24.9951">Delivery</text></g><g class="participant participant-tail" data-participant="d"><rect fill="#FFB6C1" height="30.2969" rx="2.5" ry="2.5" style="stroke:#181818;stroke-width:0.5;" width="81.4297" x="1025.8105" y="502.0234"/><text fill="#000000" font-family="Courier" font-size="14" lengthAdjust="spacing" textLength="67.4297" x="1032.8105" y="522.0186">Delivery</text></g><g><title>BookingServiceImpl</title><rect fill="#90EE90" height="417.5938" style="stroke:#181818;stroke-width:1;" width="10" x="339.8931" y="67.4297"/></g><g><title>CargoRepository</title><rect fill="#ADD8E6" height="29.1328" style="stroke:#181818;stroke-width:1;" width="10" x="502.9668" y="96.5625"/></g><g><title>CargoRepository</title><rect fill="#ADD8E6" height="14" style="stroke:#181818;stroke-width:1;" width="10" x="502.9668" y="457.0234"/></g><g><title>Cargo</title><rect fill="#FFB6C1" height="273.0625" style="stroke:#181818;stroke-width:1;" width="10" x="611.2539" y="154.8281"/></g><g><title>RouteSpecification</title><rect fill="#FFB6C1" height="29.1328" style="stroke:#181818;stroke-width:1;" width="10" x="828.0938" y="226.0938"/></g><g><title>Itinerary</title><rect fill="#FFB6C1" height="29.1328" style="stroke:#181818;stroke-width:1;" width="10" x="965.8813" y="284.3594"/></g><g><title>Delivery</title><rect fill="#FFB6C1" height="29.1328" style="stroke:#181818;stroke-width:1;" width="10" x="1061.5254" y="384.7578"/></g><g class="message" data-participant-1="bs" data-participant-2="bs"><polygon fill="#181818" points="327.8931,63.4297,337.8931,67.4297,327.8931,71.4297,331.8931,67.4297" style="stroke:#181818;stroke-width:1;"/><line style="stroke:#181818;stroke-width:1;" x1="0" x2="333.8931" y1="67.4297" y2="67.4297"/><text fill="#000000" font-family="Courier" font-size="13" lengthAdjust="spacing" textLength="320.8931" x="9.5" y="62.3638">assignCargoToRoute(itinerary,&#160;trackingId)</text></g><g class="message" data-participant-1="bs" data-participant-2="cr"><polygon fill="#181818" points="490.9668,92.5625,500.9668,96.5625,490.9668,100.5625,494.9668,96.5625" style="stroke:#181818;stroke-width:1;"/><line style="stroke:#181818;stroke-width:1;" x1="349.8931" x2="496.9668" y1="96.5625" y2="96.5625"/><text fill="#000000" font-family="Courier" font-size="13" lengthAdjust="spacing" textLength="125.2266" x="363.8167" y="91.4966">find(trackingId)</text></g><g class="message" data-participant-1="cr" data-participant-2="bs"><polygon fill="#181818" points="360.8931,121.6953,350.8931,125.6953,360.8931,129.6953,356.8931,125.6953" style="stroke:#181818;stroke-width:1;"/><line style="stroke:#181818;stroke-width:1;stroke-dasharray:2.0,2.0;" x1="354.8931" x2="506.9668" y1="125.6953" y2="125.6953"/><text fill="#000000" font-family="Courier" font-size="13" lengthAdjust="spacing" textLength="39.1333" x="409.3633" y="120.6294">cargo</text></g><g class="message" data-participant-1="bs" data-participant-2="c"><polygon fill="#181818" points="599.2539,150.8281,609.2539,154.8281,599.2539,158.8281,603.2539,154.8281" style="stroke:#181818;stroke-width:1;"/><line style="stroke:#181818;stroke-width:1;" x1="349.8931" x2="605.2539" y1="154.8281" y2="154.8281"/><text fill="#000000" font-family="Courier" font-size="13" lengthAdjust="spacing" textLength="187.8398" x="386.6536" y="149.7622">assignToRoute(itinerary)</text></g><g class="message" data-participant-1="c" data-participant-2="c"><line style="stroke:#181818;stroke-width:1;" x1="621.2539" x2="663.2539" y1="183.9609" y2="183.9609"/><line style="stroke:#181818;stroke-width:1;" x1="663.2539" x2="663.2539" y1="183.9609" y2="196.9609"/><line style="stroke:#181818;stroke-width:1;" x1="622.2539" x2="663.2539" y1="196.9609" y2="196.9609"/><polygon fill="#181818" points="632.2539,192.9609,622.2539,196.9609,632.2539,200.9609,628.2539,196.9609" style="stroke:#181818;stroke-width:1;"/><text fill="#000000" font-family="Courier" font-size="13" lengthAdjust="spacing" textLength="156.5332" x="628.2539" y="178.895">routeSpecification()</text></g><g class="message" data-participant-1="c" data-participant-2="rs"><polygon fill="#181818" points="816.0938,222.0938,826.0938,226.0938,816.0938,230.0938,820.0938,226.0938" style="stroke:#181818;stroke-width:1;"/><line style="stroke:#181818;stroke-width:1;" x1="621.2539" x2="822.0938" y1="226.0938" y2="226.0938"/><text fill="#000000" font-family="Courier" font-size="13" lengthAdjust="spacing" textLength="187.8398" x="630.7539" y="221.0278">isSatisfiedBy(itinerary)</text></g><g class="message" data-participant-1="rs" data-participant-2="c"><polygon fill="#181818" points="632.2539,251.2266,622.2539,255.2266,632.2539,259.2266,628.2539,255.2266" style="stroke:#181818;stroke-width:1;"/><line style="stroke:#181818;stroke-width:1;stroke-dasharray:2.0,2.0;" x1="626.2539" x2="832.0938" y1="255.2266" y2="255.2266"/><text fill="#000000" font-family="Courier" font-size="13" lengthAdjust="spacing" textLength="70.4399" x="691.9539" y="250.1606">satisfied</text></g><g class="message" data-participant-1="c" data-participant-2="i"><polygon fill="#181818" points="953.8813,280.3594,963.8813,284.3594,953.8813,288.3594,957.8813,284.3594" style="stroke:#181818;stroke-width:1;"/><line style="stroke:#181818;stroke-width:1;" x1="621.2539" x2="959.8813" y1="284.3594" y2="284.3594"/><text fill="#000000" font-family="Courier" font-size="13" lengthAdjust="spacing" textLength="46.96" x="770.0876" y="279.2935">legs()</text></g><g class="message" data-participant-1="i" data-participant-2="c"><polygon fill="#181818" points="632.2539,309.4922,622.2539,313.4922,632.2539,317.4922,628.2539,313.4922" style="stroke:#181818;stroke-width:1;"/><line style="stroke:#181818;stroke-width:1;stroke-dasharray:2.0,2.0;" x1="626.2539" x2="969.8813" y1="313.4922" y2="313.4922"/><text fill="#000000" font-family="Courier" font-size="13" lengthAdjust="spacing" textLength="31.3066" x="780.4143" y="308.4263">legs</text></g><g class="message" data-participant-1="c" data-participant-2="c"><line style="stroke:#181818;stroke-width:1;" x1="621.2539" x2="663.2539" y1="342.625" y2="342.625"/><line style="stroke:#181818;stroke-width:1;" x1="663.2539" x2="663.2539" y1="342.625" y2="355.625"/><line style="stroke:#181818;stroke-width:1;" x1="622.2539" x2="663.2539" y1="355.625" y2="355.625"/><polygon fill="#181818" points="632.2539,351.625,622.2539,355.625,632.2539,359.625,628.2539,355.625" style="stroke:#181818;stroke-width:1;"/><text fill="#000000" font-family="Courier" font-size="13" lengthAdjust="spacing" textLength="125.2266" x="628.2539" y="337.5591">itinerary&#160;=&#160;legs</text></g><g class="message" data-participant-1="c" data-participant-2="d"><polygon fill="#181818" points="1049.5254,380.7578,1059.5254,384.7578,1049.5254,388.7578,1053.5254,384.7578" style="stroke:#181818;stroke-width:1;"/><line style="stroke:#181818;stroke-width:1;" x1="621.2539" x2="1055.5254" y1="384.7578" y2="384.7578"/><text fill="#000000" font-family="Courier" font-size="13" lengthAdjust="spacing" textLength="360.0264" x="661.3765" y="379.6919">updateOnRouting(routeSpecification,&#160;itinerary)</text></g><g class="message" data-participant-1="d" data-participant-2="c"><polygon fill="#181818" points="632.2539,409.8906,622.2539,413.8906,632.2539,417.8906,628.2539,413.8906" style="stroke:#181818;stroke-width:1;"/><line style="stroke:#181818;stroke-width:1;stroke-dasharray:2.0,2.0;" x1="626.2539" x2="1065.5254" y1="413.8906" y2="413.8906"/><text fill="#000000" font-family="Courier" font-size="13" lengthAdjust="spacing" textLength="62.6133" x="812.583" y="408.8247">delivery</text></g><g class="message" data-participant-1="c" data-participant-2="bs"><polygon fill="#181818" points="360.8931,423.8906,350.8931,427.8906,360.8931,431.8906,356.8931,427.8906" style="stroke:#181818;stroke-width:1;"/><line style="stroke:#181818;stroke-width:1;stroke-dasharray:2.0,2.0;" x1="354.8931" x2="615.2539" y1="427.8906" y2="427.8906"/></g><g class="message" data-participant-1="bs" data-participant-2="cr"><polygon fill="#181818" points="490.9668,453.0234,500.9668,457.0234,490.9668,461.0234,494.9668,457.0234" style="stroke:#181818;stroke-width:1;"/><line style="stroke:#181818;stroke-width:1;" x1="349.8931" x2="496.9668" y1="457.0234" y2="457.0234"/><text fill="#000000" font-family="Courier" font-size="13" lengthAdjust="spacing" textLength="93.9199" x="379.47" y="451.9575">store(cargo)</text></g><g class="message" data-participant-1="cr" data-participant-2="bs"><polygon fill="#181818" points="360.8931,467.0234,350.8931,471.0234,360.8931,475.0234,356.8931,471.0234" style="stroke:#181818;stroke-width:1;"/><line style="stroke:#181818;stroke-width:1;stroke-dasharray:2.0,2.0;" x1="354.8931" x2="506.9668" y1="471.0234" y2="471.0234"/></g><g class="message" data-participant-1="bs" data-participant-2="bs"><polygon fill="#181818" points="11,481.0234,1,485.0234,11,489.0234,7,485.0234" style="stroke:#181818;stroke-width:1;"/><line style="stroke:#181818;stroke-width:1;stroke-dasharray:2.0,2.0;" x1="5" x2="343.8931" y1="485.0234" y2="485.0234"/></g><!--SRC=[XLBBJiCm4BpdAwnoIINo0n4WqIAa7W2fvTQJQs_ILHCxU9rA_NishsBt8OxhdPcTtJ4Tq3JIoLhKrbYrTxO6KSYA8A5pIqCXsyg_M-C_9VUNjdK8Ba0G_BHW57m0aIpXjSBI20N6CofXY4U5ZJHUp1RMCglSW3kYWbNTL3CXIUn8F31fxqi7O6BAKhhIhg6nXDwwKuzNRiJlgXPkm0VGY6dG76BCshOUDWqeB519ZzRq14Tt6IkF1fmSn-DTt1jKU8GHfaDOiirUUC-S6yJdwMr-szv9YfFwe_1Egkv2AprFfF9ub1ukpvDmpMBAvQ90ezERdFX4N6NZVDLDJZG4oBFYvExAM2WSRQL6dhiwQJeVcevd8ctuZGe4lJZTL8rlprKswDB42nqx6WTZBYeeAGs4ecnmakbGeGB-EJ-x4Sy3REZeNBIDPkoNwMx1vqslTtmKjtQ9SjUJ1Jr-ZT26xeVrmKI9X14J_tf8-zJ-Z_Sor-rJbbqyS_KB]--></g></svg>