<svg xmlns="http://www.w3.org/2000/svg" xmlns:xlink="http://www.w3.org/1999/xlink" contentStyleType="text/css" data-diagram-type="SEQUENCE" height="700px" preserveAspectRatio="none" style="width:1328px;height:700px;background:#FFFFFF;" version="1.1" viewBox="0 0 1328 700" width="1328px" zoomAndPan="magnify"><defs/><g><g><title>BookingServiceImpl</title><rect fill="#90EE90" height="579.3906" style="stroke:#181818;stroke-width:1;" width="10" x="324.2397" y="67.4297"/></g><g><title>CargoRepository</title><rect fill="#ADD8E6" height="29.1328" style="stroke:#181818;stroke-width:1;" width="10" x="487.3135" y="96.5625"/></g><g><title>CargoRepository</title><rect fill="#ADD8E6" height="14" style="stroke:#181818;stroke-width:1;" width="10" x="487.3135" y="618.8203"/></g><g><title>LocationRepository</title><rect fill="#ADD8E6" height="29.1328" style="stroke:#181818;stroke-width:1;" width="10" x="650.3872" y="154.8281"/></g><g><title>Cargo</title><rect fill="#FFB6C1" height="29.1328" style="stroke:#181818;stroke-width:1;" width="10" x="771.3174" y="213.0938"/></g><g><title>Cargo</title><rect fill="#FFB6C1" height="29.1328" style="stroke:#181818;stroke-width:1;" width="10" x="771.3174" y="271.3594"/></g><g><title>Cargo</title><rect fill="#FFB6C1" height="201.7969" style="stroke:#181818;stroke-width:1;" width="10" x="771.3174" y="387.8906"/></g><g><title>RouteSpecification</title><rect fill="#FFB6C1" height="4" style="stroke:#181818;stroke-width:1;" width="10" x="1042.9438" y="354.7578"/></g><g><title>RouteSpecification</title><rect fill="#FFB6C1" height="29.1328" style="stroke:#181818;stroke-width:1;" width="10" x="1042.9438" y="488.2891"/></g><g><title>Itinerary</title><rect fill="#FFB6C1" height="34.1328" style="stroke:#181818;stroke-width:1;" width="10" x="1180.7314" y="425.0234"/></g><g><title>Delivery</title><rect fill="#FFB6C1" height="29.1328" style="stroke:#181818;stroke-width:1;" width="10" x="1276.3755" y="546.5547"/></g><g><title>BookingServiceImpl</title><rect fill="#000000" fill-opacity="0.00000" height="628.5234" width="8" x="325.2397" y="36.2969"/><line style="stroke:#181818;stroke-width:0.5;stroke-dasharray:5.0,5.0;" x1="328.3813" x2="328.3813" y1="36.2969" y2="664.8203"/></g><g><title>CargoRepository</title><rect fill="#000000" fill-opacity="0.00000" height="628.5234" width="8" x="488.3135" y="36.2969"/><line style="stroke:#181818;stroke-width:0.5;stroke-dasharray:5.0,5.0;" x1="492.0981" x2="492.0981" y1="36.2969" y2="664.8203"/></g><g><title>LocationRepository</title><rect fill="#000000" fill-opacity="0.00000" height="628.5234" width="8" x="651.3872" y="36.2969"/><line style="stroke:#181818;stroke-width:0.5;stroke-dasharray:5.0,5.0;" x1="654.5288" x2="654.5288" y1="36.2969" y2="664.8203"/></g><g><title>Cargo</title><rect fill="#000000" fill-opacity="0.00000" height="628.5234" width="8" x="772.3174" y="36.2969"/><line style="stroke:#181818;stroke-width:0.5;stroke-dasharray:5.0,5.0;" x1="776.2456" x2="776.2456" y1="36.2969" y2="664.8203"/></g><g><title>RouteSpecification</title><rect fill="#000000" fill-opacity="0.00000" height="324.1953" width="8" x="1043.9438" y="340.625"/><line style="stroke:#181818;stroke-width:0.5;stroke-dasharray:5.0,5.0;" x1="1047.0854" x2="1047.0854" y1="340.625" y2="664.8203"/></g><g><title>Itinerary</title><rect fill="#000000" fill-opacity="0.00000" height="628.5234" width="8" x="1181.7314" y="36.2969"/><line style="stroke:#181818;stroke-width:0.5;stroke-dasharray:5.0,5.0;" x1="1184.8022" x2="1184.8022" y1="36.2969" y2="664.8203"/></g><g><title>Delivery</title><rect fill="#000000" fill-opacity="0.00000" height="628.5234" width="8" x="1277.3755" y="36.2969"/><line style="stroke:#181818;stroke-width:0.5;stroke-dasharray:5.0,5.0;" x1="1280.6606" x2="1280.6606" y1="36.2969" y2="664.8203"/></g><g class="participant participant-head" data-participant="bs"><rect fill="#90EE90" height="30.2969" rx="2.5" ry="2.5" style="stroke:#181818;stroke-width:0.5;" width="165.7168" x="246.3813" y="5"/><text fill="#000000" font-family="Courier" font-size="14" lengthAdjust="spacing" textLength="151.7168" x="253.3813" y="24.9951">BookingServiceImpl</text></g><g class="participant participant-tail" data-participant="bs"><rect fill="#90EE90" height="30.2969" rx="2.5" ry="2.5" style="stroke:#181818;stroke-width:0.5;" width="165.7168" x="246.3813" y="663.8203"/><text fill="#000000" font-family="Courier" font-size="14" lengthAdjust="spacing" textLength="151.7168" x="253.3813" y="683.8154">BookingServiceImpl</text></g><g class="participant participant-head" data-participant="cr"><rect fill="#ADD8E6" height="30.2969" rx="2.5" ry="2.5" style="stroke:#181818;stroke-width:0.5;" width="140.4307" x="422.0981" y="5"/><text fill="#000000" font-family="Courier" font-size="14" lengthAdjust="spacing" textLength="126.4307" x="429.0981" y="24.9951">CargoRepository</text></g><g class="participant participant-tail" data-participant="cr"><rect fill="#ADD8E6" height="30.2969" rx="2.5" ry="2.5" style="stroke:#181818;stroke-width:0.5;" width="140.4307" x="422.0981" y="663.8203"/><text fill="#000000" font-family="Courier" font-size="14" lengthAdjust="spacing" textLength="126.4307" x="429.0981" y="683.8154">CargoRepository</text></g><g class="participant participant-head" data-participant="lr"><rect fill="#ADD8E6" height="30.2969" rx="2.5" ry="2.5" style="stroke:#181818;stroke-width:0.5;" width="165.7168" x="572.5288" y="5"/><text fill="#000000" font-family="Courier" font-size="14" lengthAdjust="spacing" textLength="151.7168" x="579.5288" y="24.9951">LocationRepository</text></g><g class="participant participant-tail" data-participant="lr"><rect fill="#ADD8E6" height="30.2969" rx="2.5" ry="2.5" style="stroke:#181818;stroke-width:0.5;" width="165.7168" x="572.5288" y="663.8203"/><text fill="#000000" font-family="Courier" font-size="14" lengthAdjust="spacing" textLength="151.7168" x="579.5288" y="683.8154">LocationRepository</text></g><g class="participant participant-head" data-participant="c"><rect fill="#FFB6C1" height="30.2969" rx="2.5" ry="2.5" style="stroke:#181818;stroke-width:0.5;" width="56.1436" x="748.2456" y="5"/><text fill="#000000" font-family="Courier" font-size="14" lengthAdjust="spacing" textLength="42.1436" x="755.2456" y="24.9951">Cargo</text></g><g class="participant participant-tail" data-participant="c"><rect fill="#FFB6C1" height="30.2969" rx="2.5" ry="2.5" style="stroke:#181818;stroke-width:0.5;" width="56.1436" x="748.2456" y="663.8203"/><text fill="#000000" font-family="Courier" font-size="14" lengthAdjust="spacing" textLength="42.1436" x="755.2456" y="683.8154">Cargo</text></g><g class="participant participant-tail" data-participant="rs"><rect fill="#FFB6C1" height="30.2969" rx="2.5" ry="2.5" style="stroke:#181818;stroke-width:0.5;" width="165.7168" x="965.0854" y="663.8203"/><text fill="#000000" font-family="Courier" font-size="14" lengthAdjust="spacing" textLength="151.7168" x="972.0854" y="683.8154">RouteSpecification</text></g><g class="participant participant-head" data-participant="i"><rect fill="#FFB6C1" height="30.2969" rx="2.5" ry="2.5" style="stroke:#181818;stroke-width:0.5;" width="89.8584" x="1140.8022" y="5"/><text fill="#000000" font-family="Courier" font-size="14" lengthAdjust="spacing" textLength="75.8584" x="1147.8022" y="24.9951">Itinerary</text></g><g class="participant participant-tail" data-participant="i"><rect fill="#FFB6C1" height="30.2969" rx="2.5" ry="2.5" style="stroke:#181818;stroke-width:0.5;" width="89.8584" x="1140.8022" y="663.8203"/><text fill="#000000" font-family="Courier" font-size="14" lengthAdjust="spacing" textLength="75.8584" x="1147.8022" y="683.8154">Itinerary</text></g><g class="participant participant-head" data-participant="d"><rect fill="#FFB6C1" height="30.2969" rx="2.5" ry="2.5" style="stroke:#181818;stroke-width:0.5;" width="81.4297" x="1240.6606" y="5"/><text fill="#000000" font-family="Courier" font-size="14" lengthAdjust="spacing" textLength="67.4297" x="1247.6606" y="24.9951">Delivery</text></g><g class="participant participant-tail" data-participant="d"><rect fill="#FFB6C1" height="30.2969" rx="2.5" ry="2.5" style="stroke:#181818;stroke-width:0.5;" width="81.4297" x="1240.6606" y="663.8203"/><text fill="#000000" font-family="Courier" font-size="14" lengthAdjust="spacing" textLength="67.4297" x="1247.6606" y="683.8154">Delivery</text></g><g><title>BookingServiceImpl</title><rect fill="#90EE90" height="579.3906" style="stroke:#181818;stroke-width:1;" width="10" x="324.2397" y="67.4297"/></g><g><title>CargoRepository</title><rect fill="#ADD8E6" height="29.1328" style="stroke:#181818;stroke-width:1;" width="10" x="487.3135" y="96.5625"/></g><g><title>CargoRepository</title><rect fill="#ADD8E6" height="14" style="stroke:#181818;stroke-width:1;" width="10" x="487.3135" y="618.8203"/></g><g><title>LocationRepository</title><rect fill="#ADD8E6" height="29.1328" style="stroke:#181818;stroke-width:1;" width="10" x="650.3872" y="154.8281"/></g><g><title>Cargo</title><rect fill="#FFB6C1" height="29.1328" style="stroke:#181818;stroke-width:1;" width="10" x="771.3174" y="213.0938"/></g><g><title>Cargo</title><rect fill="#FFB6C1" height="29.1328" style="stroke:#181818;stroke-width:1;" width="10" x="771.3174" y="271.3594"/></g><g><title>Cargo</title><rect fill="#FFB6C1" height="201.7969" style="stroke:#181818;stroke-width:1;" width="10" x="771.3174" y="387.8906"/></g><g><title>RouteSpecification</title><rect fill="#FFB6C1" height="4" style="stroke:#181818;stroke-width:1;" width="10" x="1042.9438" y="354.7578"/></g><g><title>RouteSpecification</title><rect fill="#FFB6C1" height="29.1328" style="stroke:#181818;stroke-width:1;" width="10" x="1042.9438" y="488.2891"/></g><g><title>Itinerary</title><rect fill="#FFB6C1" height="34.1328" style="stroke:#181818;stroke-width:1;" width="10" x="1180.7314" y="425.0234"/></g><g><title>Delivery</title><rect fill="#FFB6C1" height="29.1328" style="stroke:#181818;stroke-width:1;" width="10" x="1276.3755" y="546.5547"/></g><g class="message" data-participant-1="bs" data-participant-2="bs"><polygon fill="#181818" points="312.2397,63.4297,322.2397,67.4297,312.2397,71.4297,316.2397,67.4297" style="stroke:#181818;stroke-width:1;"/><line style="stroke:#181818;stroke-width:1;" x1="0" x2="318.2397" y1="67.4297" y2="67.4297"/><text fill="#000000" font-family="Courier" font-size="13" lengthAdjust="spacing" textLength="305.2397" x="9.5" y="62.3638">changeDestination(trackingId,&#160;unLocode)</text></g><g class="message" data-participant-1="bs" data-participant-2="cr"><polygon fill="#181818" points="475.3135,92.5625,485.3135,96.5625,475.3135,100.5625,479.3135,96.5625" style="stroke:#181818;stroke-width:1;"/><line style="stroke:#181818;stroke-width:1;" x1="334.2397" x2="481.3135" y1="96.5625" y2="96.5625"/><text fill="#000000" font-family="Courier" font-size="13" lengthAdjust="spacing" textLength="125.2266" x="348.1633" y="91.4966">find(trackingId)</text></g><g class="message" data-participant-1="cr" data-participant-2="bs"><polygon fill="#181818" points="345.2397,121.6953,335.2397,125.6953,345.2397,129.6953,341.2397,125.6953" style="stroke:#181818;stroke-width:1;"/><line style="stroke:#181818;stroke-width:1;stroke-dasharray:2.0,2.0;" x1="339.2397" x2="491.3135" y1="125.6953" y2="125.6953"/><text fill="#000000" font-family="Courier" font-size="13" lengthAdjust="spacing" textLength="39.1333" x="393.71" y="120.6294">cargo</text></g><g class="message" data-participant-1="bs" data-participant-2="lr"><polygon fill="#181818" points="638.3872,150.8281,648.3872,154.8281,638.3872,158.8281,642.3872,154.8281" style="stroke:#181818;stroke-width:1;"/><line style="stroke:#181818;stroke-width:1;" x1="334.2397" x2="644.3872" y1="154.8281" y2="154.8281"/><text fill="#000000" font-family="Courier" font-size="13" lengthAdjust="spacing" textLength="109.5732" x="437.5269" y="149.7622">find(unLocode)</text></g><g class="message" data-participant-1="lr" data-participant-2="bs"><polygon fill="#181818" points="345.2397,179.9609,335.2397,183.9609,345.2397,187.9609,341.2397,183.9609" style="stroke:#181818;stroke-width:1;"/><line style="stroke:#181818;stroke-width:1;stroke-dasharray:2.0,2.0;" x1="339.2397" x2="654.3872" y1="183.9609" y2="183.9609"/><text fill="#000000" font-family="Courier" font-size="13" lengthAdjust="spacing" textLength="109.5732" x="440.0269" y="178.895">newDestination</text></g><g class="message" data-participant-1="bs" data-participant-2="c"><polygon fill="#181818" points="759.3174,209.0938,769.3174,213.0938,759.3174,217.0938,763.3174,213.0938" style="stroke:#181818;stroke-width:1;"/><line style="stroke:#181818;stroke-width:1;" x1="334.2397" x2="765.3174" y1="213.0938" y2="213.0938"/><text fill="#000000" font-family="Courier" font-size="13" lengthAdjust="spacing" textLength="62.6133" x="521.4719" y="208.0278">origin()</text></g><g class="message" data-participant-1="c" data-participant-2="bs"><polygon fill="#181818" points="345.2397,238.2266,335.2397,242.2266,345.2397,246.2266,341.2397,242.2266" style="stroke:#181818;stroke-width:1;"/><line style="stroke:#181818;stroke-width:1;stroke-dasharray:2.0,2.0;" x1="339.2397" x2="775.3174" y1="242.2266" y2="242.2266"/><text fill="#000000" font-family="Courier" font-size="13" lengthAdjust="spacing" textLength="46.96" x="531.7986" y="237.1606">origin</text></g><g class="message" data-participant-1="bs" data-participant-2="c"><polygon fill="#181818" points="759.3174,267.3594,769.3174,271.3594,759.3174,275.3594,763.3174,271.3594" style="stroke:#181818;stroke-width:1;"/><line style="stroke:#181818;stroke-width:1;" x1="334.2397" x2="765.3174" y1="271.3594" y2="271.3594"/><text fill="#000000" font-family="Courier" font-size="13" lengthAdjust="spacing" textLength="156.5332" x="474.512" y="266.2935">routeSpecification()</text></g><g class="message" data-participant-1="c" data-participant-2="bs"><polygon fill="#181818" points="345.2397,296.4922,335.2397,300.4922,345.2397,304.4922,341.2397,300.4922" style="stroke:#181818;stroke-width:1;"/><line style="stroke:#181818;stroke-width:1;stroke-dasharray:2.0,2.0;" x1="339.2397" x2="775.3174" y1="300.4922" y2="300.4922"/><text fill="#000000" font-family="Courier" font-size="13" lengthAdjust="spacing" textLength="101.7466" x="504.4053" y="295.4263">specification</text></g><g class="message" data-participant-1="bs" data-participant-2="rs"><polygon fill="#181818" points="953.0854,340.7578,963.0854,344.7578,953.0854,348.7578,957.0854,344.7578" style="stroke:#181818;stroke-width:1;"/><line style="stroke:#181818;stroke-width:1;" x1="334.2397" x2="959.0854" y1="344.7578" y2="344.7578"/><text fill="#000000" font-family="Courier" font-size="13" lengthAdjust="spacing" textLength="211.3198" x="544.0027" y="324.5591">new(origin,&#160;newDestination,</text><text fill="#000000" font-family="Courier" font-size="13" lengthAdjust="spacing" textLength="250.4531" x="524.436" y="339.6919">specification.arrivalDeadline())</text></g><rect fill="#FFB6C1" height="30.2969" rx="2.5" ry="2.5" style="stroke:#181818;stroke-width:0.5;" width="165.7168" x="965.0854" y="311.4609"/><text fill="#000000" font-family="Courier" font-size="14" lengthAdjust="spacing" textLength="151.7168" x="972.0854" y="331.4561">RouteSpecification</text><g class="message" data-participant-1="rs" data-participant-2="bs"><polygon fill="#181818" points="345.2397,354.7578,335.2397,358.7578,345.2397,362.7578,341.2397,358.7578" style="stroke:#181818;stroke-width:1;"/><line style="stroke:#181818;stroke-width:1;stroke-dasharray:2.0,2.0;" x1="339.2397" x2="1046.9438" y1="358.7578" y2="358.7578"/></g><g class="message" data-participant-1="bs" data-participant-2="c"><polygon fill="#181818" points="759.3174,383.8906,769.3174,387.8906,759.3174,391.8906,763.3174,387.8906" style="stroke:#181818;stroke-width:1;"/><line style="stroke:#181818;stroke-width:1;" x1="334.2397" x2="765.3174" y1="387.8906" y2="387.8906"/><text fill="#000000" font-family="Courier" font-size="13" lengthAdjust="spacing" textLength="273.9331" x="415.812" y="382.8247">specifyNewRoute(routeSpecification)</text></g><g class="message" data-participant-1="c" data-participant-2="c"><line style="stroke:#181818;stroke-width:1;" x1="781.3174" x2="823.3174" y1="417.0234" y2="417.0234"/><line style="stroke:#181818;stroke-width:1;" x1="823.3174" x2="823.3174" y1="417.0234" y2="430.0234"/><line style="stroke:#181818;stroke-width:1;" x1="782.3174" x2="823.3174" y1="430.0234" y2="430.0234"/><polygon fill="#181818" points="792.3174,426.0234,782.3174,430.0234,792.3174,434.0234,788.3174,430.0234" style="stroke:#181818;stroke-width:1;"/><text fill="#000000" font-family="Courier" font-size="13" lengthAdjust="spacing" textLength="86.0933" x="788.3174" y="411.9575">itinerary()</text></g><g class="message" data-participant-1="i" data-participant-2="c"><polygon fill="#181818" points="792.3174,455.1563,782.3174,459.1563,792.3174,463.1563,788.3174,459.1563" style="stroke:#181818;stroke-width:1;"/><line style="stroke:#181818;stroke-width:1;stroke-dasharray:2.0,2.0;" x1="786.3174" x2="1184.7314" y1="459.1563" y2="459.1563"/><text fill="#000000" font-family="Courier" font-size="13" lengthAdjust="spacing" textLength="125.2266" x="920.9111" y="454.0903">currentItinerary</text></g><g class="message" data-participant-1="c" data-participant-2="rs"><polygon fill="#181818" points="1030.9438,484.2891,1040.9438,488.2891,1030.9438,492.2891,1034.9438,488.2891" style="stroke:#181818;stroke-width:1;"/><line style="stroke:#181818;stroke-width:1;" x1="781.3174" x2="1036.9438" y1="488.2891" y2="488.2891"/><text fill="#000000" font-family="Courier" font-size="13" lengthAdjust="spacing" textLength="242.6265" x="790.8174" y="483.2231">isSatisfiedBy(currentItinerary)</text></g><g class="message" data-participant-1="rs" data-participant-2="c"><polygon fill="#181818" points="792.3174,513.4219,782.3174,517.4219,792.3174,521.4219,788.3174,517.4219" style="stroke:#181818;stroke-width:1;"/><line style="stroke:#181818;stroke-width:1;stroke-dasharray:2.0,2.0;" x1="786.3174" x2="1046.9438" y1="517.4219" y2="517.4219"/><text fill="#000000" font-family="Courier" font-size="13" lengthAdjust="spacing" textLength="70.4399" x="879.4106" y="512.356">satisfied</text></g><g class="message" data-participant-1="c" data-participant-2="d"><polygon fill="#181818" points="1264.3755,542.5547,1274.3755,546.5547,1264.3755,550.5547,1268.3755,546.5547" style="stroke:#181818;stroke-width:1;"/><line style="stroke:#181818;stroke-width:1;" x1="781.3174" x2="1270.3755" y1="546.5547" y2="546.5547"/><text fill="#000000" font-family="Courier" font-size="13" lengthAdjust="spacing" textLength="360.0264" x="848.8333" y="541.4888">updateOnRouting(routeSpecification,&#160;itinerary)</text></g><g class="message" data-participant-1="d" data-participant-2="c"><polygon fill="#181818" points="792.3174,571.6875,782.3174,575.6875,792.3174,579.6875,788.3174,575.6875" style="stroke:#181818;stroke-width:1;"/><line style="stroke:#181818;stroke-width:1;stroke-dasharray:2.0,2.0;" x1="786.3174" x2="1280.3755" y1="575.6875" y2="575.6875"/><text fill="#000000" font-family="Courier" font-size="13" lengthAdjust="spacing" textLength="62.6133" x="1000.0398" y="570.6216">delivery</text></g><g class="message" data-participant-1="c" data-participant-2="bs"><polygon fill="#181818" points="345.2397,585.6875,335.2397,589.6875,345.2397,593.6875,341.2397,589.6875" style="stroke:#181818;stroke-width:1;"/><line style="stroke:#181818;stroke-width:1;stroke-dasharray:2.0,2.0;" x1="339.2397" x2="775.3174" y1="589.6875" y2="589.6875"/></g><g class="message" data-participant-1="bs" data-participant-2="cr"><polygon fill="#181818" points="475.3135,614.8203,485.3135,618.8203,475.3135,622.8203,479.3135,618.8203" style="stroke:#181818;stroke-width:1;"/><line style="stroke:#181818;stroke-width:1;" x1="334.2397" x2="481.3135" y1="618.8203" y2="618.8203"/><text fill="#000000" font-family="Courier" font-size="13" lengthAdjust="spacing" textLength="93.9199" x="363.8167" y="613.7544">store(cargo)</text></g><g class="message" data-participant-1="cr" data-participant-2="bs"><polygon fill="#181818" points="345.2397,628.8203,335.2397,632.8203,345.2397,636.8203,341.2397,632.8203" style="stroke:#181818;stroke-width:1;"/><line style="stroke:#181818;stroke-width:1;stroke-dasharray:2.0,2.0;" x1="339.2397" x2="491.3135" y1="632.8203" y2="632.8203"/></g><g class="message" data-participant-1="bs" data-participant-2="bs"><polygon fill="#181818" points="11,642.8203,1,646.8203,11,650.8203,7,646.8203" style="stroke:#181818;stroke-width:1;"/><line style="stroke:#181818;stroke-width:1;stroke-dasharray:2.0,2.0;" x1="5" x2="328.2397" y1="646.8203" y2="646.8203"/></g><!--SRC=[ZLJDJkCm4BxdAIou1Adb0IgqqaA5L8a5YHxPYx4dwGZNpewTehxzJfoVsg4LtEBu-vblCXF_WRQH9FTYxwnJEt9x49Kq7We_NMceP6l2exFXMVBzWsi9WHA4XtyjM0L_m7jPms-3jHKAR61KmP202XjfWxYwTuvPzHReW0es-yPS2Ud5knVNJDg5cW1iJdcGLBjNQ9p7uEWOyOe6_Bjf8OS_EIK3EZjZcCkCQD3B3fW6xKUEUNLjW6q32YlizIE1_4N69g05aeCzNiIjmU011fXEOSNRyXTtPYNKJjeQrk1PCdgNWQJg-hZH2z5QZkmqt1HI1Jp80FDs5dncAKKhKQ7L2JlXv2tbqt9qxzfJQ4YGew8P5S_Ka3VSdFGiV2PHKc4p2QkLS8GrsZAjC6sEclHwO5PW8aDVFjmF97sAdoahWkw9_E11VQIoBsCnYxVuQpEnMqd4KcODKXiUaF8cgIQV9ZxrzQG5iEqfMwzyV8RFE9xbrwoNedPPemIEKvfs9HjMZ5KmLBL4lDBJNATbuQ3ODGFzbhrzXQ3lZ-MSzLtSBjP8dmUF5debsaRpgnVRfUOnFfDxSGgM66RRfKSxFInWwgQBQHhE3nOFlkT_2vHnExvVe_d-lDqjbxFNVFeF]--></g></svg>