<svg xmlns="http://www.w3.org/2000/svg" xmlns:xlink="http://www.w3.org/1999/xlink" contentStyleType="text/css" data-diagram-type="SEQUENCE" height="660px" preserveAspectRatio="none" style="width:1027px;height:660px;background:#FFFFFF;" version="1.1" viewBox="0 0 1027 660" width="1027px" zoomAndPan="magnify"><defs/><g><g><title>CargoInspectionServiceImpl</title><rect fill="#90EE90" height="540.125" style="stroke:#181818;stroke-width:1;" width="10" x="206.8398" y="67.4297"/></g><g><title>CargoRepository</title><rect fill="#FFB6C1" height="29.1328" style="stroke:#181818;stroke-width:1;" width="10" x="403.6284" y="96.5625"/></g><g><title>CargoRepository</title><rect fill="#FFB6C1" height="14" style="stroke:#181818;stroke-width:1;" width="10" x="403.6284" y="579.5547"/></g><g><title>HandlingEventRepository</title><rect fill="#FFB6C1" height="29.1328" style="stroke:#181818;stroke-width:1;" width="10" x="587.7739" y="154.8281"/></g><g><title>Cargo</title><rect fill="#FFB6C1" height="14" style="stroke:#181818;stroke-width:1;" width="10" x="729.7759" y="213.0938"/></g><g><title>Cargo</title><rect fill="#FFB6C1" height="29.1328" style="stroke:#181818;stroke-width:1;" width="10" x="729.7759" y="256.2266"/></g><g><title>ApplicationEvents</title><rect fill="#90EE90" height="14" style="stroke:#181818;stroke-width:1;" width="10" x="846.4917" y="396.8906"/></g><g><title>ApplicationEvents</title><rect fill="#90EE90" height="14" style="stroke:#181818;stroke-width:1;" width="10" x="846.4917" y="529.4219"/></g><g><title>delivery</title><rect fill="#FFB6C1" height="29.1328" style="stroke:#181818;stroke-width:1;" width="10" x="975.8506" y="314.4922"/></g><g><title>delivery</title><rect fill="#FFB6C1" height="29.1328" style="stroke:#181818;stroke-width:1;" width="10" x="975.8506" y="447.0234"/></g><rect fill="none" height="60.2656" style="stroke:#000000;stroke-width:1.5;" width="854.8691" x="85.2666" y="358.625"/><rect fill="none" height="60.2656" style="stroke:#000000;stroke-width:1.5;" width="854.8691" x="85.2666" y="491.1563"/><g><title>CargoInspectionServiceImpl</title><rect fill="#000000" fill-opacity="0.00000" height="589.2578" width="8" x="207.8398" y="36.2969"/><line style="stroke:#181818;stroke-width:0.5;stroke-dasharray:5.0,5.0;" x1="211.2666" x2="211.2666" y1="36.2969" y2="625.5547"/></g><g><title>CargoRepository</title><rect fill="#000000" fill-opacity="0.00000" height="589.2578" width="8" x="404.6284" y="36.2969"/><line style="stroke:#181818;stroke-width:0.5;stroke-dasharray:5.0,5.0;" x1="408.4131" x2="408.4131" y1="36.2969" y2="625.5547"/></g><g><title>HandlingEventRepository</title><rect fill="#000000" fill-opacity="0.00000" height="589.2578" width="8" x="588.7739" y="36.2969"/><line style="stroke:#181818;stroke-width:0.5;stroke-dasharray:5.0,5.0;" x1="591.8438" x2="591.8438" y1="36.2969" y2="625.5547"/></g><g><title>Cargo</title><rect fill="#000000" fill-opacity="0.00000" height="589.2578" width="8" x="730.7759" y="36.2969"/><line style="stroke:#181818;stroke-width:0.5;stroke-dasharray:5.0,5.0;" x1="734.7041" x2="734.7041" y1="36.2969" y2="625.5547"/></g><g><title>ApplicationEvents</title><rect fill="#000000" fill-opacity="0.00000" height="589.2578" width="8" x="847.4917" y="36.2969"/><line style="stroke:#181818;stroke-width:0.5;stroke-dasharray:5.0,5.0;" x1="850.8477" x2="850.8477" y1="36.2969" y2="625.5547"/></g><g><title>delivery</title><rect fill="#000000" fill-opacity="0.00000" height="589.2578" width="8" x="976.8506" y="36.2969"/><line style="stroke:#181818;stroke-width:0.5;stroke-dasharray:5.0,5.0;" x1="980.1357" x2="980.1357" y1="36.2969" y2="625.5547"/></g><g class="participant participant-head" data-participant="cis"><rect fill="#90EE90" height="30.2969" rx="2.5" ry="2.5" style="stroke:#181818;stroke-width:0.5;" width="233.1465" x="95.2666" y="5"/><text fill="#000000" font-family="Courier" font-size="14" lengthAdjust="spacing" textLength="219.1465" x="102.2666" y="24.9951">CargoInspectionServiceImpl</text></g><g class="participant participant-tail" data-participant="cis"><rect fill="#90EE90" height="30.2969" rx="2.5" ry="2.5" style="stroke:#181818;stroke-width:0.5;" width="233.1465" x="95.2666" y="624.5547"/><text fill="#000000" font-family="Courier" font-size="14" lengthAdjust="spacing" textLength="219.1465" x="102.2666" y="644.5498">CargoInspectionServiceImpl</text></g><g class="participant participant-head" data-participant="cr"><rect fill="#FFB6C1" height="30.2969" rx="2.5" ry="2.5" style="stroke:#181818;stroke-width:0.5;" width="140.4307" x="338.4131" y="5"/><text fill="#000000" font-family="Courier" font-size="14" lengthAdjust="spacing" textLength="126.4307" x="345.4131" y="24.9951">CargoRepository</text></g><g class="participant participant-tail" data-participant="cr"><rect fill="#FFB6C1" height="30.2969" rx="2.5" ry="2.5" style="stroke:#181818;stroke-width:0.5;" width="140.4307" x="338.4131" y="624.5547"/><text fill="#000000" font-family="Courier" font-size="14" lengthAdjust="spacing" textLength="126.4307" x="345.4131" y="644.5498">CargoRepository</text></g><g class="participant participant-head" data-participant="her"><rect fill="#FFB6C1" height="30.2969" rx="2.5" ry="2.5" style="stroke:#181818;stroke-width:0.5;" width="207.8604" x="488.8438" y="5"/><text fill="#000000" font-family="Courier" font-size="14" lengthAdjust="spacing" textLength="193.8604" x="495.8438" y="24.9951">HandlingEventRepository</text></g><g class="participant participant-tail" data-participant="her"><rect fill="#FFB6C1" height="30.2969" rx="2.5" ry="2.5" style="stroke:#181818;stroke-width:0.5;" width="207.8604" x="488.8438" y="624.5547"/><text fill="#000000" font-family="Courier" font-size="14" lengthAdjust="spacing" textLength="193.8604" x="495.8438" y="644.5498">HandlingEventRepository</text></g><g class="participant participant-head" data-participant="c"><rect fill="#FFB6C1" height="30.2969" rx="2.5" ry="2.5" style="stroke:#181818;stroke-width:0.5;" width="56.1436" x="706.7041" y="5"/><text fill="#000000" font-family="Courier" font-size="14" lengthAdjust="spacing" textLength="42.1436" x="713.7041" y="24.9951">Cargo</text></g><g class="participant participant-tail" data-participant="c"><rect fill="#FFB6C1" height="30.2969" rx="2.5" ry="2.5" style="stroke:#181818;stroke-width:0.5;" width="56.1436" x="706.7041" y="624.5547"/><text fill="#000000" font-family="Courier" font-size="14" lengthAdjust="spacing" textLength="42.1436" x="713.7041" y="644.5498">Cargo</text></g><g class="participant participant-head" data-participant="ae"><rect fill="#90EE90" height="30.2969" rx="2.5" ry="2.5" style="stroke:#181818;stroke-width:0.5;" width="157.2881" x="772.8477" y="5"/><text fill="#000000" font-family="Courier" font-size="14" lengthAdjust="spacing" textLength="143.2881" x="779.8477" y="24.9951">ApplicationEvents</text></g><g class="participant participant-tail" data-participant="ae"><rect fill="#90EE90" height="30.2969" rx="2.5" ry="2.5" style="stroke:#181818;stroke-width:0.5;" width="157.2881" x="772.8477" y="624.5547"/><text fill="#000000" font-family="Courier" font-size="14" lengthAdjust="spacing" textLength="143.2881" x="779.8477" y="644.5498">ApplicationEvents</text></g><g class="participant participant-head" data-participant="delivery"><rect fill="#E2E2F0" height="30.2969" rx="2.5" ry="2.5" style="stroke:#181818;stroke-width:0.5;" width="81.4297" x="940.1357" y="5"/><text fill="#000000" font-family="Courier" font-size="14" lengthAdjust="spacing" textLength="67.4297" x="947.1357" y="24.9951">delivery</text></g><g class="participant participant-tail" data-participant="delivery"><rect fill="#E2E2F0" height="30.2969" rx="2.5" ry="2.5" style="stroke:#181818;stroke-width:0.5;" width="81.4297" x="940.1357" y="624.5547"/><text fill="#000000" font-family="Courier" font-size="14" lengthAdjust="spacing" textLength="67.4297" x="947.1357" y="644.5498">delivery</text></g><g><title>CargoInspectionServiceImpl</title><rect fill="#90EE90" height="540.125" style="stroke:#181818;stroke-width:1;" width="10" x="206.8398" y="67.4297"/></g><g><title>CargoRepository</title><rect fill="#FFB6C1" height="29.1328" style="stroke:#181818;stroke-width:1;" width="10" x="403.6284" y="96.5625"/></g><g><title>CargoRepository</title><rect fill="#FFB6C1" height="14" style="stroke:#181818;stroke-width:1;" width="10" x="403.6284" y="579.5547"/></g><g><title>HandlingEventRepository</title><rect fill="#FFB6C1" height="29.1328" style="stroke:#181818;stroke-width:1;" width="10" x="587.7739" y="154.8281"/></g><g><title>Cargo</title><rect fill="#FFB6C1" height="14" style="stroke:#181818;stroke-width:1;" width="10" x="729.7759" y="213.0938"/></g><g><title>Cargo</title><rect fill="#FFB6C1" height="29.1328" style="stroke:#181818;stroke-width:1;" width="10" x="729.7759" y="256.2266"/></g><g><title>ApplicationEvents</title><rect fill="#90EE90" height="14" style="stroke:#181818;stroke-width:1;" width="10" x="846.4917" y="396.8906"/></g><g><title>ApplicationEvents</title><rect fill="#90EE90" height="14" style="stroke:#181818;stroke-width:1;" width="10" x="846.4917" y="529.4219"/></g><g><title>delivery</title><rect fill="#FFB6C1" height="29.1328" style="stroke:#181818;stroke-width:1;" width="10" x="975.8506" y="314.4922"/></g><g><title>delivery</title><rect fill="#FFB6C1" height="29.1328" style="stroke:#181818;stroke-width:1;" width="10" x="975.8506" y="447.0234"/></g><g class="message" data-participant-1="cis" data-participant-2="cis"><polygon fill="#181818" points="194.8398,63.4297,204.8398,67.4297,194.8398,71.4297,198.8398,67.4297" style="stroke:#181818;stroke-width:1;"/><line style="stroke:#181818;stroke-width:1;" x1="0" x2="200.8398" y1="67.4297" y2="67.4297"/><text fill="#000000" font-family="Courier" font-size="13" lengthAdjust="spacing" textLength="187.8398" x="9.5" y="62.3638">inspectCargo(trackingId)</text></g><g class="message" data-participant-1="cis" data-participant-2="cr"><polygon fill="#181818" points="391.6284,92.5625,401.6284,96.5625,391.6284,100.5625,395.6284,96.5625" style="stroke:#181818;stroke-width:1;"/><line style="stroke:#181818;stroke-width:1;" x1="216.8398" x2="397.6284" y1="96.5625" y2="96.5625"/><text fill="#000000" font-family="Courier" font-size="13" lengthAdjust="spacing" textLength="125.2266" x="247.6208" y="91.4966">find(trackingId)</text></g><g class="message" data-participant-1="cr" data-participant-2="cis"><polygon fill="#181818" points="227.8398,121.6953,217.8398,125.6953,227.8398,129.6953,223.8398,125.6953" style="stroke:#181818;stroke-width:1;"/><line style="stroke:#181818;stroke-width:1;stroke-dasharray:2.0,2.0;" x1="221.8398" x2="407.6284" y1="125.6953" y2="125.6953"/><text fill="#000000" font-family="Courier" font-size="13" lengthAdjust="spacing" textLength="39.1333" x="293.1675" y="120.6294">cargo</text></g><g class="message" data-participant-1="cis" data-participant-2="her"><polygon fill="#181818" points="575.7739,150.8281,585.7739,154.8281,575.7739,158.8281,579.7739,154.8281" style="stroke:#181818;stroke-width:1;"/><line style="stroke:#181818;stroke-width:1;" x1="216.8398" x2="581.7739" y1="154.8281" y2="154.8281"/><text fill="#000000" font-family="Courier" font-size="13" lengthAdjust="spacing" textLength="313.0664" x="245.7737" y="149.7622">lookupHandlingHistoryOfCargo(trackingId)</text></g><g class="message" data-participant-1="her" data-participant-2="cis"><polygon fill="#181818" points="227.8398,179.9609,217.8398,183.9609,227.8398,187.9609,223.8398,183.9609" style="stroke:#181818;stroke-width:1;"/><line style="stroke:#181818;stroke-width:1;stroke-dasharray:2.0,2.0;" x1="221.8398" x2="591.7739" y1="183.9609" y2="183.9609"/><text fill="#000000" font-family="Courier" font-size="13" lengthAdjust="spacing" textLength="117.3999" x="346.1069" y="178.895">handlingHistory</text></g><g class="message" data-participant-1="cis" data-participant-2="c"><polygon fill="#181818" points="717.7759,209.0938,727.7759,213.0938,717.7759,217.0938,721.7759,213.0938" style="stroke:#181818;stroke-width:1;"/><line style="stroke:#181818;stroke-width:1;" x1="216.8398" x2="723.7759" y1="213.0938" y2="213.0938"/><text fill="#000000" font-family="Courier" font-size="13" lengthAdjust="spacing" textLength="305.2397" x="320.688" y="208.0278">deriveDeliveryProgress(handlingHistory)</text></g><g class="message" data-participant-1="c" data-participant-2="cis"><polygon fill="#181818" points="227.8398,223.0938,217.8398,227.0938,227.8398,231.0938,223.8398,227.0938" style="stroke:#181818;stroke-width:1;"/><line style="stroke:#181818;stroke-width:1;stroke-dasharray:2.0,2.0;" x1="221.8398" x2="733.7759" y1="227.0938" y2="227.0938"/></g><g class="message" data-participant-1="cis" data-participant-2="c"><polygon fill="#181818" points="717.7759,252.2266,727.7759,256.2266,717.7759,260.2266,721.7759,256.2266" style="stroke:#181818;stroke-width:1;"/><line style="stroke:#181818;stroke-width:1;" x1="216.8398" x2="723.7759" y1="256.2266" y2="256.2266"/><text fill="#000000" font-family="Courier" font-size="13" lengthAdjust="spacing" textLength="78.2666" x="434.1746" y="251.1606">delivery()</text></g><g class="message" data-participant-1="c" data-participant-2="cis"><polygon fill="#181818" points="227.8398,281.3594,217.8398,285.3594,227.8398,289.3594,223.8398,285.3594" style="stroke:#181818;stroke-width:1;"/><line style="stroke:#181818;stroke-width:1;stroke-dasharray:2.0,2.0;" x1="221.8398" x2="733.7759" y1="285.3594" y2="285.3594"/><text fill="#000000" font-family="Courier" font-size="13" lengthAdjust="spacing" textLength="62.6133" x="444.5012" y="280.2935">delivery</text></g><g class="message" data-participant-1="cis" data-participant-2="delivery"><polygon fill="#181818" points="963.8506,310.4922,973.8506,314.4922,963.8506,318.4922,967.8506,314.4922" style="stroke:#181818;stroke-width:1;"/><line style="stroke:#181818;stroke-width:1;" x1="216.8398" x2="969.8506" y1="314.4922" y2="314.4922"/><text fill="#000000" font-family="Courier" font-size="13" lengthAdjust="spacing" textLength="117.3999" x="537.6453" y="309.4263">isMisdirected()</text></g><g class="message" data-participant-1="delivery" data-participant-2="cis"><polygon fill="#181818" points="227.8398,339.625,217.8398,343.625,227.8398,347.625,223.8398,343.625" style="stroke:#181818;stroke-width:1;"/><line style="stroke:#181818;stroke-width:1;stroke-dasharray:2.0,2.0;" x1="221.8398" x2="979.8506" y1="343.625" y2="343.625"/><text fill="#000000" font-family="Courier" font-size="13" lengthAdjust="spacing" textLength="86.0933" x="555.7986" y="338.5591">misdirected</text></g><path d="M85.2666,358.625 L153.7466,358.625 L153.7466,365.7578 L143.7466,375.7578 L85.2666,375.7578 L85.2666,358.625" fill="#EEEEEE" style="stroke:#000000;stroke-width:1.5;"/><rect fill="none" height="60.2656" style="stroke:#000000;stroke-width:1.5;" width="854.8691" x="85.2666" y="358.625"/><text fill="#000000" font-family="Courier" font-size="13" font-weight="bold" lengthAdjust="spacing" textLength="23.48" x="100.2666" y="371.6919">alt</text><text fill="#000000" font-family="Courier" font-size="11" font-weight="bold" lengthAdjust="spacing" textLength="86.0933" x="168.7466" y="370.8354">[misdirected]</text><g class="message" data-participant-1="cis" data-participant-2="ae"><polygon fill="#181818" points="834.4917,392.8906,844.4917,396.8906,834.4917,400.8906,838.4917,396.8906" style="stroke:#181818;stroke-width:1;"/><line style="stroke:#181818;stroke-width:1;" x1="216.8398" x2="840.4917" y1="396.8906" y2="396.8906"/><text fill="#000000" font-family="Courier" font-size="13" lengthAdjust="spacing" textLength="203.4932" x="429.9192" y="391.8247">cargoWasMisdirected(cargo)</text></g><g class="message" data-participant-1="ae" data-participant-2="cis"><polygon fill="#181818" points="227.8398,406.8906,217.8398,410.8906,227.8398,414.8906,223.8398,410.8906" style="stroke:#181818;stroke-width:1;"/><line style="stroke:#181818;stroke-width:1;stroke-dasharray:2.0,2.0;" x1="221.8398" x2="850.4917" y1="410.8906" y2="410.8906"/></g><g class="message" data-participant-1="cis" data-participant-2="delivery"><polygon fill="#181818" points="963.8506,443.0234,973.8506,447.0234,963.8506,451.0234,967.8506,447.0234" style="stroke:#181818;stroke-width:1;"/><line style="stroke:#181818;stroke-width:1;" x1="216.8398" x2="969.8506" y1="447.0234" y2="447.0234"/><text fill="#000000" font-family="Courier" font-size="13" lengthAdjust="spacing" textLength="195.6665" x="498.512" y="441.9575">isUnloadedAtDestination()</text></g><g class="message" data-participant-1="delivery" data-participant-2="cis"><polygon fill="#181818" points="227.8398,472.1563,217.8398,476.1563,227.8398,480.1563,223.8398,476.1563" style="stroke:#181818;stroke-width:1;"/><line style="stroke:#181818;stroke-width:1;stroke-dasharray:2.0,2.0;" x1="221.8398" x2="979.8506" y1="476.1563" y2="476.1563"/><text fill="#000000" font-family="Courier" font-size="13" lengthAdjust="spacing" textLength="101.7466" x="547.9719" y="471.0903">atDestination</text></g><path d="M85.2666,491.1563 L153.7466,491.1563 L153.7466,498.2891 L143.7466,508.2891 L85.2666,508.2891 L85.2666,491.1563" fill="#EEEEEE" style="stroke:#000000;stroke-width:1.5;"/><rect fill="none" height="60.2656" style="stroke:#000000;stroke-width:1.5;" width="854.8691" x="85.2666" y="491.1563"/><text fill="#000000" font-family="Courier" font-size="13" font-weight="bold" lengthAdjust="spacing" textLength="23.48" x="100.2666" y="504.2231">alt</text><text fill="#000000" font-family="Courier" font-size="11" font-weight="bold" lengthAdjust="spacing" textLength="99.3384" x="168.7466" y="503.3667">[atDestination]</text><g class="message" data-participant-1="cis" data-participant-2="ae"><polygon fill="#181818" points="834.4917,525.4219,844.4917,529.4219,834.4917,533.4219,838.4917,529.4219" style="stroke:#181818;stroke-width:1;"/><line style="stroke:#181818;stroke-width:1;" x1="216.8398" x2="840.4917" y1="529.4219" y2="529.4219"/><text fill="#000000" font-family="Courier" font-size="13" lengthAdjust="spacing" textLength="172.1865" x="445.5725" y="524.356">cargoHasArrived(cargo)</text></g><g class="message" data-participant-1="ae" data-participant-2="cis"><polygon fill="#181818" points="227.8398,539.4219,217.8398,543.4219,227.8398,547.4219,223.8398,543.4219" style="stroke:#181818;stroke-width:1;"/><line style="stroke:#181818;stroke-width:1;stroke-dasharray:2.0,2.0;" x1="221.8398" x2="850.4917" y1="543.4219" y2="543.4219"/></g><g class="message" data-participant-1="cis" data-participant-2="cr"><polygon fill="#181818" points="391.6284,575.5547,401.6284,579.5547,391.6284,583.5547,395.6284,579.5547" style="stroke:#181818;stroke-width:1;"/><line style="stroke:#181818;stroke-width:1;" x1="216.8398" x2="397.6284" y1="579.5547" y2="579.5547"/><text fill="#000000" font-family="Courier" font-size="13" lengthAdjust="spacing" textLength="93.9199" x="263.2742" y="574.4888">store(cargo)</text></g><g class="message" data-participant-1="cr" data-participant-2="cis"><polygon fill="#181818" points="227.8398,589.5547,217.8398,593.5547,227.8398,597.5547,223.8398,593.5547" style="stroke:#181818;stroke-width:1;"/><line style="stroke:#181818;stroke-width:1;stroke-dasharray:2.0,2.0;" x1="221.8398" x2="407.6284" y1="593.5547" y2="593.5547"/></g><g class="message" data-participant-1="cis" data-participant-2="cis"><polygon fill="#181818" points="11,603.5547,1,607.5547,11,611.5547,7,607.5547" style="stroke:#181818;stroke-width:1;"/><line style="stroke:#181818;stroke-width:1;stroke-dasharray:2.0,2.0;" x1="5" x2="210.8398" y1="607.5547" y2="607.5547"/></g><!--SRC=[hLFDYjim4BxxASJsaZta1K8fXDsMvB1jQIazx6cG9lOGUQHgbC2-VIKdTYHlqcMXFXWaVJ_pZKQo9_OGe5UzOwUxu7fKEx22ZKn71dTmiF6Bu_WLqlc3EmJ2K204_noGDJwX2BIujjIoqiWnePe4YQJ90qTrzm2XTLiMZpgIuvyOZgHnstjxfq2K9b4V4hkBRK3aAzmVw9rGTE7bH0Xdl2VUr_0DiB74xUTZAcH6w_0sRx0vYT_4hBstf2576EHbm0DMnJVFoqyvqKhHAV2Wl8W1TEfSkpNt3QGk727Yg-1DtiZqi58xOdE3LQL8g-NegBDLOx20Jfef_4fPv_O7F_PeGv9xysttZn9dFSlBoQwhTKhZ3Y_EUfM6AT0H7z6cVtZv7bpAAxAO2PGPguYZPHMjrZyfBzwKk62lYusdwVhaYSHGI5U8fXGU8QN-j3VPz1TowJIvDs1Z1LBfEnS1UBxBtr0LCUpT3yX9S3P-mnbE3SlBmXsmGJPNm_vYwy2WMST7b4WyZFdxOqD9lnsyXbsBlW5PXpmr_pzsVbvvu71KVlDfpT_KyyVbyjL-Mlu5]--></g></svg>