<svg xmlns="http://www.w3.org/2000/svg" xmlns:xlink="http://www.w3.org/1999/xlink" contentStyleType="text/css" data-diagram-type="SEQUENCE" height="964px" preserveAspectRatio="none" style="width:1579px;height:964px;background:#FFFFFF;" version="1.1" viewBox="0 0 1579 964" width="1579px" zoomAndPan="magnify"><defs/><g><g><title>CargoInspectionServiceImpl</title><rect fill="#90EE90" height="843.4531" style="stroke:#181818;stroke-width:1;" width="10" x="206.8398" y="67.4297"/></g><g><title>CargoRepository</title><rect fill="#ADD8E6" height="29.1328" style="stroke:#181818;stroke-width:1;" width="10" x="403.6284" y="96.5625"/></g><g><title>CargoRepository</title><rect fill="#ADD8E6" height="14" style="stroke:#181818;stroke-width:1;" width="10" x="403.6284" y="882.8828"/></g><g><title>HandlingEventRepository</title><rect fill="#ADD8E6" height="29.1328" style="stroke:#181818;stroke-width:1;" width="10" x="587.7739" y="154.8281"/></g><g><title>Cargo</title><rect fill="#FFB6C1" height="317.3281" style="stroke:#181818;stroke-width:1;" width="10" x="729.7759" y="213.0938"/></g><g><title>Cargo</title><rect fill="#FFB6C1" height="29.1328" style="stroke:#181818;stroke-width:1;" width="10" x="729.7759" y="559.5547"/></g><g><title>HandlingHistory</title><rect fill="#FFB6C1" height="29.1328" style="stroke:#181818;stroke-width:1;" width="10" x="954.4424" y="413.8906"/></g><g><title>RouteSpecification</title><rect fill="#FFB6C1" height="63.2656" style="stroke:#181818;stroke-width:1;" width="10" x="1117.5161" y="250.2266"/></g><g><title>Itinerary</title><rect fill="#FFB6C1" height="34.1328" style="stroke:#181818;stroke-width:1;" width="10" x="1255.3037" y="350.625"/></g><g><title>Delivery</title><rect fill="#FFB6C1" height="29.1328" style="stroke:#181818;stroke-width:1;" width="10" x="1350.9478" y="487.2891"/></g><g><title>Delivery</title><rect fill="#FFB6C1" height="29.1328" style="stroke:#181818;stroke-width:1;" width="10" x="1350.9478" y="617.8203"/></g><g><title>Delivery</title><rect fill="#FFB6C1" height="29.1328" style="stroke:#181818;stroke-width:1;" width="10" x="1350.9478" y="750.3516"/></g><g><title>ApplicationEvents</title><rect fill="#90EE90" height="14" style="stroke:#181818;stroke-width:1;" width="10" x="1480.3066" y="700.2188"/></g><g><title>ApplicationEvents</title><rect fill="#90EE90" height="14" style="stroke:#181818;stroke-width:1;" width="10" x="1480.3066" y="832.75"/></g><rect fill="none" height="60.2656" style="stroke:#000000;stroke-width:1.5;" width="1488.6841" x="85.2666" y="661.9531"/><rect fill="none" height="60.2656" style="stroke:#000000;stroke-width:1.5;" width="1488.6841" x="85.2666" y="794.4844"/><g><title>CargoInspectionServiceImpl</title><rect fill="#000000" fill-opacity="0.00000" height="892.5859" width="8" x="207.8398" y="36.2969"/><line style="stroke:#181818;stroke-width:0.5;stroke-dasharray:5.0,5.0;" x1="211.2666" x2="211.2666" y1="36.2969" y2="928.8828"/></g><g><title>CargoRepository</title><rect fill="#000000" fill-opacity="0.00000" height="892.5859" width="8" x="404.6284" y="36.2969"/><line style="stroke:#181818;stroke-width:0.5;stroke-dasharray:5.0,5.0;" x1="408.4131" x2="408.4131" y1="36.2969" y2="928.8828"/></g><g><title>HandlingEventRepository</title><rect fill="#000000" fill-opacity="0.00000" height="892.5859" width="8" x="588.7739" y="36.2969"/><line style="stroke:#181818;stroke-width:0.5;stroke-dasharray:5.0,5.0;" x1="591.8438" x2="591.8438" y1="36.2969" y2="928.8828"/></g><g><title>Cargo</title><rect fill="#000000" fill-opacity="0.00000" height="892.5859" width="8" x="730.7759" y="36.2969"/><line style="stroke:#181818;stroke-width:0.5;stroke-dasharray:5.0,5.0;" x1="734.7041" x2="734.7041" y1="36.2969" y2="928.8828"/></g><g><title>HandlingHistory</title><rect fill="#000000" fill-opacity="0.00000" height="892.5859" width="8" x="955.4424" y="36.2969"/><line style="stroke:#181818;stroke-width:0.5;stroke-dasharray:5.0,5.0;" x1="959.2271" x2="959.2271" y1="36.2969" y2="928.8828"/></g><g><title>RouteSpecification</title><rect fill="#000000" fill-opacity="0.00000" height="892.5859" width="8" x="1118.5161" y="36.2969"/><line style="stroke:#181818;stroke-width:0.5;stroke-dasharray:5.0,5.0;" x1="1121.6577" x2="1121.6577" y1="36.2969" y2="928.8828"/></g><g><title>Itinerary</title><rect fill="#000000" fill-opacity="0.00000" height="892.5859" width="8" x="1256.3037" y="36.2969"/><line style="stroke:#181818;stroke-width:0.5;stroke-dasharray:5.0,5.0;" x1="1259.3745" x2="1259.3745" y1="36.2969" y2="928.8828"/></g><g><title>Delivery</title><rect fill="#000000" fill-opacity="0.00000" height="892.5859" width="8" x="1351.9478" y="36.2969"/><line style="stroke:#181818;stroke-width:0.5;stroke-dasharray:5.0,5.0;" x1="1355.2329" x2="1355.2329" y1="36.2969" y2="928.8828"/></g><g><title>ApplicationEvents</title><rect fill="#000000" fill-opacity="0.00000" height="892.5859" width="8" x="1481.3066" y="36.2969"/><line style="stroke:#181818;stroke-width:0.5;stroke-dasharray:5.0,5.0;" x1="1484.6626" x2="1484.6626" y1="36.2969" y2="928.8828"/></g><g class="participant participant-head" data-participant="cis"><rect fill="#90EE90" height="30.2969" rx="2.5" ry="2.5" style="stroke:#181818;stroke-width:0.5;" width="233.1465" x="95.2666" y="5"/><text fill="#000000" font-family="Courier" font-size="14" lengthAdjust="spacing" textLength="219.1465" x="102.2666" y="24.9951">CargoInspectionServiceImpl</text></g><g class="participant participant-tail" data-participant="cis"><rect fill="#90EE90" height="30.2969" rx="2.5" ry="2.5" style="stroke:#181818;stroke-width:0.5;" width="233.1465" x="95.2666" y="927.8828"/><text fill="#000000" font-family="Courier" font-size="14" lengthAdjust="spacing" textLength="219.1465" x="102.2666" y="947.8779">CargoInspectionServiceImpl</text></g><g class="participant participant-head" data-participant="cr"><rect fill="#ADD8E6" height="30.2969" rx="2.5" ry="2.5" style="stroke:#181818;stroke-width:0.5;" width="140.4307" x="338.4131" y="5"/><text fill="#000000" font-family="Courier" font-size="14" lengthAdjust="spacing" textLength="126.4307" x="345.4131" y="24.9951">CargoRepository</text></g><g class="participant participant-tail" data-participant="cr"><rect fill="#ADD8E6" height="30.2969" rx="2.5" ry="2.5" style="stroke:#181818;stroke-width:0.5;" width="140.4307" x="338.4131" y="927.8828"/><text fill="#000000" font-family="Courier" font-size="14" lengthAdjust="spacing" textLength="126.4307" x="345.4131" y="947.8779">CargoRepository</text></g><g class="participant participant-head" data-participant="her"><rect fill="#ADD8E6" height="30.2969" rx="2.5" ry="2.5" style="stroke:#181818;stroke-width:0.5;" width="207.8604" x="488.8438" y="5"/><text fill="#000000" font-family="Courier" font-size="14" lengthAdjust="spacing" textLength="193.8604" x="495.8438" y="24.9951">HandlingEventRepository</text></g><g class="participant participant-tail" data-participant="her"><rect fill="#ADD8E6" height="30.2969" rx="2.5" ry="2.5" style="stroke:#181818;stroke-width:0.5;" width="207.8604" x="488.8438" y="927.8828"/><text fill="#000000" font-family="Courier" font-size="14" lengthAdjust="spacing" textLength="193.8604" x="495.8438" y="947.8779">HandlingEventRepository</text></g><g class="participant participant-head" data-participant="c"><rect fill="#FFB6C1" height="30.2969" rx="2.5" ry="2.5" style="stroke:#181818;stroke-width:0.5;" width="56.1436" x="706.7041" y="5"/><text fill="#000000" font-family="Courier" font-size="14" lengthAdjust="spacing" textLength="42.1436" x="713.7041" y="24.9951">Cargo</text></g><g class="participant participant-tail" data-participant="c"><rect fill="#FFB6C1" height="30.2969" rx="2.5" ry="2.5" style="stroke:#181818;stroke-width:0.5;" width="56.1436" x="706.7041" y="927.8828"/><text fill="#000000" font-family="Courier" font-size="14" lengthAdjust="spacing" textLength="42.1436" x="713.7041" y="947.8779">Cargo</text></g><g class="participant participant-head" data-participant="hh"><rect fill="#FFB6C1" height="30.2969" rx="2.5" ry="2.5" style="stroke:#181818;stroke-width:0.5;" width="140.4307" x="889.2271" y="5"/><text fill="#000000" font-family="Courier" font-size="14" lengthAdjust="spacing" textLength="126.4307" x="896.2271" y="24.9951">HandlingHistory</text></g><g class="participant participant-tail" data-participant="hh"><rect fill="#FFB6C1" height="30.2969" rx="2.5" ry="2.5" style="stroke:#181818;stroke-width:0.5;" width="140.4307" x="889.2271" y="927.8828"/><text fill="#000000" font-family="Courier" font-size="14" lengthAdjust="spacing" textLength="126.4307" x="896.2271" y="947.8779">HandlingHistory</text></g><g class="participant participant-head" data-participant="rs"><rect fill="#FFB6C1" height="30.2969" rx="2.5" ry="2.5" style="stroke:#181818;stroke-width:0.5;" width="165.7168" x="1039.6577" y="5"/><text fill="#000000" font-family="Courier" font-size="14" lengthAdjust="spacing" textLength="151.7168" x="1046.6577" y="24.9951">RouteSpecification</text></g><g class="participant participant-tail" data-participant="rs"><rect fill="#FFB6C1" height="30.2969" rx="2.5" ry="2.5" style="stroke:#181818;stroke-width:0.5;" width="165.7168" x="1039.6577" y="927.8828"/><text fill="#000000" font-family="Courier" font-size="14" lengthAdjust="spacing" textLength="151.7168" x="1046.6577" y="947.8779">RouteSpecification</text></g><g class="participant participant-head" data-participant="i"><rect fill="#FFB6C1" height="30.2969" rx="2.5" ry="2.5" style="stroke:#181818;stroke-width:0.5;" width="89.8584" x="1215.3745" y="5"/><text fill="#000000" font-family="Courier" font-size="14" lengthAdjust="spacing" textLength="75.8584" x="1222.3745" y="24.9951">Itinerary</text></g><g class="participant participant-tail" data-participant="i"><rect fill="#FFB6C1" height="30.2969" rx="2.5" ry="2.5" style="stroke:#181818;stroke-width:0.5;" width="89.8584" x="1215.3745" y="927.8828"/><text fill="#000000" font-family="Courier" font-size="14" lengthAdjust="spacing" textLength="75.8584" x="1222.3745" y="947.8779">Itinerary</text></g><g class="participant participant-head" data-participant="d"><rect fill="#FFB6C1" height="30.2969" rx="2.5" ry="2.5" style="stroke:#181818;stroke-width:0.5;" width="81.4297" x="1315.2329" y="5"/><text fill="#000000" font-family="Courier" font-size="14" lengthAdjust="spacing" textLength="67.4297" x="1322.2329" y="24.9951">Delivery</text></g><g class="participant participant-tail" data-participant="d"><rect fill="#FFB6C1" height="30.2969" rx="2.5" ry="2.5" style="stroke:#181818;stroke-width:0.5;" width="81.4297" x="1315.2329" y="927.8828"/><text fill="#000000" font-family="Courier" font-size="14" lengthAdjust="spacing" textLength="67.4297" x="1322.2329" y="947.8779">Delivery</text></g><g class="participant participant-head" data-participant="ae"><rect fill="#90EE90" height="30.2969" rx="2.5" ry="2.5" style="stroke:#181818;stroke-width:0.5;" width="157.2881" x="1406.6626" y="5"/><text fill="#000000" font-family="Courier" font-size="14" lengthAdjust="spacing" textLength="143.2881" x="1413.6626" y="24.9951">ApplicationEvents</text></g><g class="participant participant-tail" data-participant="ae"><rect fill="#90EE90" height="30.2969" rx="2.5" ry="2.5" style="stroke:#181818;stroke-width:0.5;" width="157.2881" x="1406.6626" y="927.8828"/><text fill="#000000" font-family="Courier" font-size="14" lengthAdjust="spacing" textLength="143.2881" x="1413.6626" y="947.8779">ApplicationEvents</text></g><g><title>CargoInspectionServiceImpl</title><rect fill="#90EE90" height="843.4531" style="stroke:#181818;stroke-width:1;" width="10" x="206.8398" y="67.4297"/></g><g><title>CargoRepository</title><rect fill="#ADD8E6" height="29.1328" style="stroke:#181818;stroke-width:1;" width="10" x="403.6284" y="96.5625"/></g><g><title>CargoRepository</title><rect fill="#ADD8E6" height="14" style="stroke:#181818;stroke-width:1;" width="10" x="403.6284" y="882.8828"/></g><g><title>HandlingEventRepository</title><rect fill="#ADD8E6" height="29.1328" style="stroke:#181818;stroke-width:1;" width="10" x="587.7739" y="154.8281"/></g><g><title>Cargo</title><rect fill="#FFB6C1" height="317.3281" style="stroke:#181818;stroke-width:1;" width="10" x="729.7759" y="213.0938"/></g><g><title>Cargo</title><rect fill="#FFB6C1" height="29.1328" style="stroke:#181818;stroke-width:1;" width="10" x="729.7759" y="559.5547"/></g><g><title>HandlingHistory</title><rect fill="#FFB6C1" height="29.1328" style="stroke:#181818;stroke-width:1;" width="10" x="954.4424" y="413.8906"/></g><g><title>RouteSpecification</title><rect fill="#FFB6C1" height="63.2656" style="stroke:#181818;stroke-width:1;" width="10" x="1117.5161" y="250.2266"/></g><g><title>Itinerary</title><rect fill="#FFB6C1" height="34.1328" style="stroke:#181818;stroke-width:1;" width="10" x="1255.3037" y="350.625"/></g><g><title>Delivery</title><rect fill="#FFB6C1" height="29.1328" style="stroke:#181818;stroke-width:1;" width="10" x="1350.9478" y="487.2891"/></g><g><title>Delivery</title><rect fill="#FFB6C1" height="29.1328" style="stroke:#181818;stroke-width:1;" width="10" x="1350.9478" y="617.8203"/></g><g><title>Delivery</title><rect fill="#FFB6C1" height="29.1328" style="stroke:#181818;stroke-width:1;" width="10" x="1350.9478" y="750.3516"/></g><g><title>ApplicationEvents</title><rect fill="#90EE90" height="14" style="stroke:#181818;stroke-width:1;" width="10" x="1480.3066" y="700.2188"/></g><g><title>ApplicationEvents</title><rect fill="#90EE90" height="14" style="stroke:#181818;stroke-width:1;" width="10" x="1480.3066" y="832.75"/></g><g class="message" data-participant-1="cis" data-participant-2="cis"><polygon fill="#181818" points="194.8398,63.4297,204.8398,67.4297,194.8398,71.4297,198.8398,67.4297" style="stroke:#181818;stroke-width:1;"/><line style="stroke:#181818;stroke-width:1;" x1="0" x2="200.8398" y1="67.4297" y2="67.4297"/><text fill="#000000" font-family="Courier" font-size="13" lengthAdjust="spacing" textLength="187.8398" x="9.5" y="62.3638">inspectCargo(trackingId)</text></g><g class="message" data-participant-1="cis" data-participant-2="cr"><polygon fill="#181818" points="391.6284,92.5625,401.6284,96.5625,391.6284,100.5625,395.6284,96.5625" style="stroke:#181818;stroke-width:1;"/><line style="stroke:#181818;stroke-width:1;" x1="216.8398" x2="397.6284" y1="96.5625" y2="96.5625"/><text fill="#000000" font-family="Courier" font-size="13" lengthAdjust="spacing" textLength="125.2266" x="247.6208" y="91.4966">find(trackingId)</text></g><g class="message" data-participant-1="cr" data-participant-2="cis"><polygon fill="#181818" points="227.8398,121.6953,217.8398,125.6953,227.8398,129.6953,223.8398,125.6953" style="stroke:#181818;stroke-width:1;"/><line style="stroke:#181818;stroke-width:1;stroke-dasharray:2.0,2.0;" x1="221.8398" x2="407.6284" y1="125.6953" y2="125.6953"/><text fill="#000000" font-family="Courier" font-size="13" lengthAdjust="spacing" textLength="39.1333" x="293.1675" y="120.6294">cargo</text></g><g class="message" data-participant-1="cis" data-participant-2="her"><polygon fill="#181818" points="575.7739,150.8281,585.7739,154.8281,575.7739,158.8281,579.7739,154.8281" style="stroke:#181818;stroke-width:1;"/><line style="stroke:#181818;stroke-width:1;" x1="216.8398" x2="581.7739" y1="154.8281" y2="154.8281"/><text fill="#000000" font-family="Courier" font-size="13" lengthAdjust="spacing" textLength="313.0664" x="245.7737" y="149.7622">lookupHandlingHistoryOfCargo(trackingId)</text></g><g class="message" data-participant-1="her" data-participant-2="cis"><polygon fill="#181818" points="227.8398,179.9609,217.8398,183.9609,227.8398,187.9609,223.8398,183.9609" style="stroke:#181818;stroke-width:1;"/><line style="stroke:#181818;stroke-width:1;stroke-dasharray:2.0,2.0;" x1="221.8398" x2="591.7739" y1="183.9609" y2="183.9609"/><text fill="#000000" font-family="Courier" font-size="13" lengthAdjust="spacing" textLength="117.3999" x="346.1069" y="178.895">handlingHistory</text></g><g class="message" data-participant-1="cis" data-participant-2="c"><polygon fill="#181818" points="717.7759,209.0938,727.7759,213.0938,717.7759,217.0938,721.7759,213.0938" style="stroke:#181818;stroke-width:1;"/><line style="stroke:#181818;stroke-width:1;" x1="216.8398" x2="723.7759" y1="213.0938" y2="213.0938"/><text fill="#000000" font-family="Courier" font-size="13" lengthAdjust="spacing" textLength="305.2397" x="320.688" y="208.0278">deriveDeliveryProgress(handlingHistory)</text></g><g class="message" data-participant-1="c" data-participant-2="c"><line style="stroke:#181818;stroke-width:1;" x1="739.7759" x2="781.7759" y1="242.2266" y2="242.2266"/><line style="stroke:#181818;stroke-width:1;" x1="781.7759" x2="781.7759" y1="242.2266" y2="255.2266"/><line style="stroke:#181818;stroke-width:1;" x1="740.7759" x2="781.7759" y1="255.2266" y2="255.2266"/><polygon fill="#181818" points="750.7759,251.2266,740.7759,255.2266,750.7759,259.2266,746.7759,255.2266" style="stroke:#181818;stroke-width:1;"/><text fill="#000000" font-family="Courier" font-size="13" lengthAdjust="spacing" textLength="156.5332" x="746.7759" y="237.1606">routeSpecification()</text></g><g class="message" data-participant-1="c" data-participant-2="rs"><polygon fill="#181818" points="1105.5161,280.3594,1115.5161,284.3594,1105.5161,288.3594,1109.5161,284.3594" style="stroke:#181818;stroke-width:1;"/><line style="stroke:#181818;stroke-width:1;" x1="739.7759" x2="1111.5161" y1="284.3594" y2="284.3594"/><text fill="#000000" font-family="Courier" font-size="13" lengthAdjust="spacing" textLength="187.8398" x="834.7261" y="279.2935">isSatisfiedBy(itinerary)</text></g><g class="message" data-participant-1="rs" data-participant-2="c"><polygon fill="#181818" points="750.7759,309.4922,740.7759,313.4922,750.7759,317.4922,746.7759,313.4922" style="stroke:#181818;stroke-width:1;"/><line style="stroke:#181818;stroke-width:1;stroke-dasharray:2.0,2.0;" x1="744.7759" x2="1121.5161" y1="313.4922" y2="313.4922"/><text fill="#000000" font-family="Courier" font-size="13" lengthAdjust="spacing" textLength="70.4399" x="895.926" y="308.4263">satisfied</text></g><g class="message" data-participant-1="c" data-participant-2="c"><line style="stroke:#181818;stroke-width:1;" x1="739.7759" x2="781.7759" y1="342.625" y2="342.625"/><line style="stroke:#181818;stroke-width:1;" x1="781.7759" x2="781.7759" y1="342.625" y2="355.625"/><line style="stroke:#181818;stroke-width:1;" x1="740.7759" x2="781.7759" y1="355.625" y2="355.625"/><polygon fill="#181818" points="750.7759,351.625,740.7759,355.625,750.7759,359.625,746.7759,355.625" style="stroke:#181818;stroke-width:1;"/><text fill="#000000" font-family="Courier" font-size="13" lengthAdjust="spacing" textLength="86.0933" x="746.7759" y="337.5591">itinerary()</text></g><g class="message" data-participant-1="i" data-participant-2="c"><polygon fill="#181818" points="750.7759,380.7578,740.7759,384.7578,750.7759,388.7578,746.7759,384.7578" style="stroke:#181818;stroke-width:1;"/><line style="stroke:#181818;stroke-width:1;stroke-dasharray:2.0,2.0;" x1="744.7759" x2="1259.3037" y1="384.7578" y2="384.7578"/><text fill="#000000" font-family="Courier" font-size="13" lengthAdjust="spacing" textLength="31.3066" x="984.3865" y="379.6919">legs</text></g><g class="message" data-participant-1="c" data-participant-2="hh"><polygon fill="#181818" points="942.4424,409.8906,952.4424,413.8906,942.4424,417.8906,946.4424,413.8906" style="stroke:#181818;stroke-width:1;"/><line style="stroke:#181818;stroke-width:1;" x1="739.7759" x2="948.4424" y1="413.8906" y2="413.8906"/><text fill="#000000" font-family="Courier" font-size="13" lengthAdjust="spacing" textLength="195.6665" x="749.2759" y="408.8247">filterOnCargo(trackingId)</text></g><g class="message" data-participant-1="hh" data-participant-2="c"><polygon fill="#181818" points="750.7759,439.0234,740.7759,443.0234,750.7759,447.0234,746.7759,443.0234" style="stroke:#181818;stroke-width:1;"/><line style="stroke:#181818;stroke-width:1;stroke-dasharray:2.0,2.0;" x1="744.7759" x2="958.4424" y1="443.0234" y2="443.0234"/><text fill="#000000" font-family="Courier" font-size="13" lengthAdjust="spacing" textLength="117.3999" x="790.9092" y="437.9575">filteredHistory</text></g><g class="message" data-participant-1="c" data-participant-2="d"><polygon fill="#181818" points="1338.9478,483.2891,1348.9478,487.2891,1338.9478,491.2891,1342.9478,487.2891" style="stroke:#181818;stroke-width:1;"/><line style="stroke:#181818;stroke-width:1;" x1="739.7759" x2="1344.9478" y1="487.2891" y2="487.2891"/><text fill="#000000" font-family="Courier" font-size="13" lengthAdjust="spacing" textLength="242.6265" x="924.0486" y="467.0903">derivedFrom(routeSpecification,</text><text fill="#000000" font-family="Courier" font-size="13" lengthAdjust="spacing" textLength="211.3198" x="939.7019" y="482.2231">itinerary,&#160;filteredHistory)</text></g><g class="message" data-participant-1="d" data-participant-2="c"><polygon fill="#181818" points="750.7759,512.4219,740.7759,516.4219,750.7759,520.4219,746.7759,516.4219" style="stroke:#181818;stroke-width:1;"/><line style="stroke:#181818;stroke-width:1;stroke-dasharray:2.0,2.0;" x1="744.7759" x2="1354.9478" y1="516.4219" y2="516.4219"/><text fill="#000000" font-family="Courier" font-size="13" lengthAdjust="spacing" textLength="62.6133" x="1016.5552" y="511.356">delivery</text></g><g class="message" data-participant-1="c" data-participant-2="cis"><polygon fill="#181818" points="227.8398,526.4219,217.8398,530.4219,227.8398,534.4219,223.8398,530.4219" style="stroke:#181818;stroke-width:1;"/><line style="stroke:#181818;stroke-width:1;stroke-dasharray:2.0,2.0;" x1="221.8398" x2="733.7759" y1="530.4219" y2="530.4219"/></g><g class="message" data-participant-1="cis" data-participant-2="c"><polygon fill="#181818" points="717.7759,555.5547,727.7759,559.5547,717.7759,563.5547,721.7759,559.5547" style="stroke:#181818;stroke-width:1;"/><line style="stroke:#181818;stroke-width:1;" x1="216.8398" x2="723.7759" y1="559.5547" y2="559.5547"/><text fill="#000000" font-family="Courier" font-size="13" lengthAdjust="spacing" textLength="78.2666" x="434.1746" y="554.4888">delivery()</text></g><g class="message" data-participant-1="c" data-participant-2="cis"><polygon fill="#181818" points="227.8398,584.6875,217.8398,588.6875,227.8398,592.6875,223.8398,588.6875" style="stroke:#181818;stroke-width:1;"/><line style="stroke:#181818;stroke-width:1;stroke-dasharray:2.0,2.0;" x1="221.8398" x2="733.7759" y1="588.6875" y2="588.6875"/><text fill="#000000" font-family="Courier" font-size="13" lengthAdjust="spacing" textLength="62.6133" x="444.5012" y="583.6216">delivery</text></g><g class="message" data-participant-1="cis" data-participant-2="d"><polygon fill="#181818" points="1338.9478,613.8203,1348.9478,617.8203,1338.9478,621.8203,1342.9478,617.8203" style="stroke:#181818;stroke-width:1;"/><line style="stroke:#181818;stroke-width:1;" x1="216.8398" x2="1344.9478" y1="617.8203" y2="617.8203"/><text fill="#000000" font-family="Courier" font-size="13" lengthAdjust="spacing" textLength="117.3999" x="725.1938" y="612.7544">isMisdirected()</text></g><g class="message" data-participant-1="d" data-participant-2="cis"><polygon fill="#181818" points="227.8398,642.9531,217.8398,646.9531,227.8398,650.9531,223.8398,646.9531" style="stroke:#181818;stroke-width:1;"/><line style="stroke:#181818;stroke-width:1;stroke-dasharray:2.0,2.0;" x1="221.8398" x2="1354.9478" y1="646.9531" y2="646.9531"/><text fill="#000000" font-family="Courier" font-size="13" lengthAdjust="spacing" textLength="86.0933" x="743.3472" y="641.8872">misdirected</text></g><path d="M85.2666,661.9531 L153.7466,661.9531 L153.7466,669.0859 L143.7466,679.0859 L85.2666,679.0859 L85.2666,661.9531" fill="#EEEEEE" style="stroke:#000000;stroke-width:1.5;"/><rect fill="none" height="60.2656" style="stroke:#000000;stroke-width:1.5;" width="1488.6841" x="85.2666" y="661.9531"/><text fill="#000000" font-family="Courier" font-size="13" font-weight="bold" lengthAdjust="spacing" textLength="23.48" x="100.2666" y="675.02">alt</text><text fill="#000000" font-family="Courier" font-size="11" font-weight="bold" lengthAdjust="spacing" textLength="86.0933" x="168.7466" y="674.1636">[misdirected]</text><g class="message" data-participant-1="cis" data-participant-2="ae"><polygon fill="#181818" points="1468.3066,696.2188,1478.3066,700.2188,1468.3066,704.2188,1472.3066,700.2188" style="stroke:#181818;stroke-width:1;"/><line style="stroke:#181818;stroke-width:1;" x1="216.8398" x2="1474.3066" y1="700.2188" y2="700.2188"/><text fill="#000000" font-family="Courier" font-size="13" lengthAdjust="spacing" textLength="203.4932" x="746.8267" y="695.1528">cargoWasMisdirected(cargo)</text></g><g class="message" data-participant-1="ae" data-participant-2="cis"><polygon fill="#181818" points="227.8398,710.2188,217.8398,714.2188,227.8398,718.2188,223.8398,714.2188" style="stroke:#181818;stroke-width:1;"/><line style="stroke:#181818;stroke-width:1;stroke-dasharray:2.0,2.0;" x1="221.8398" x2="1484.3066" y1="714.2188" y2="714.2188"/></g><g class="message" data-participant-1="cis" data-participant-2="d"><polygon fill="#181818" points="1338.9478,746.3516,1348.9478,750.3516,1338.9478,754.3516,1342.9478,750.3516" style="stroke:#181818;stroke-width:1;"/><line style="stroke:#181818;stroke-width:1;" x1="216.8398" x2="1344.9478" y1="750.3516" y2="750.3516"/><text fill="#000000" font-family="Courier" font-size="13" lengthAdjust="spacing" textLength="195.6665" x="686.0605" y="745.2856">isUnloadedAtDestination()</text></g><g class="message" data-participant-1="d" data-participant-2="cis"><polygon fill="#181818" points="227.8398,775.4844,217.8398,779.4844,227.8398,783.4844,223.8398,779.4844" style="stroke:#181818;stroke-width:1;"/><line style="stroke:#181818;stroke-width:1;stroke-dasharray:2.0,2.0;" x1="221.8398" x2="1354.9478" y1="779.4844" y2="779.4844"/><text fill="#000000" font-family="Courier" font-size="13" lengthAdjust="spacing" textLength="101.7466" x="735.5205" y="774.4185">atDestination</text></g><path d="M85.2666,794.4844 L153.7466,794.4844 L153.7466,801.6172 L143.7466,811.6172 L85.2666,811.6172 L85.2666,794.4844" fill="#EEEEEE" style="stroke:#000000;stroke-width:1.5;"/><rect fill="none" height="60.2656" style="stroke:#000000;stroke-width:1.5;" width="1488.6841" x="85.2666" y="794.4844"/><text fill="#000000" font-family="Courier" font-size="13" font-weight="bold" lengthAdjust="spacing" textLength="23.48" x="100.2666" y="807.5513">alt</text><text fill="#000000" font-family="Courier" font-size="11" font-weight="bold" lengthAdjust="spacing" textLength="99.3384" x="168.7466" y="806.6948">[atDestination]</text><g class="message" data-participant-1="cis" data-participant-2="ae"><polygon fill="#181818" points="1468.3066,828.75,1478.3066,832.75,1468.3066,836.75,1472.3066,832.75" style="stroke:#181818;stroke-width:1;"/><line style="stroke:#181818;stroke-width:1;" x1="216.8398" x2="1474.3066" y1="832.75" y2="832.75"/><text fill="#000000" font-family="Courier" font-size="13" lengthAdjust="spacing" textLength="172.1865" x="762.48" y="827.6841">cargoHasArrived(cargo)</text></g><g class="message" data-participant-1="ae" data-participant-2="cis"><polygon fill="#181818" points="227.8398,842.75,217.8398,846.75,227.8398,850.75,223.8398,846.75" style="stroke:#181818;stroke-width:1;"/><line style="stroke:#181818;stroke-width:1;stroke-dasharray:2.0,2.0;" x1="221.8398" x2="1484.3066" y1="846.75" y2="846.75"/></g><g class="message" data-participant-1="cis" data-participant-2="cr"><polygon fill="#181818" points="391.6284,878.8828,401.6284,882.8828,391.6284,886.8828,395.6284,882.8828" style="stroke:#181818;stroke-width:1;"/><line style="stroke:#181818;stroke-width:1;" x1="216.8398" x2="397.6284" y1="882.8828" y2="882.8828"/><text fill="#000000" font-family="Courier" font-size="13" lengthAdjust="spacing" textLength="93.9199" x="263.2742" y="877.8169">store(cargo)</text></g><g class="message" data-participant-1="cr" data-participant-2="cis"><polygon fill="#181818" points="227.8398,892.8828,217.8398,896.8828,227.8398,900.8828,223.8398,896.8828" style="stroke:#181818;stroke-width:1;"/><line style="stroke:#181818;stroke-width:1;stroke-dasharray:2.0,2.0;" x1="221.8398" x2="407.6284" y1="896.8828" y2="896.8828"/></g><g class="message" data-participant-1="cis" data-participant-2="cis"><polygon fill="#181818" points="11,906.8828,1,910.8828,11,914.8828,7,910.8828" style="stroke:#181818;stroke-width:1;"/><line style="stroke:#181818;stroke-width:1;stroke-dasharray:2.0,2.0;" x1="5" x2="210.8398" y1="910.8828" y2="910.8828"/></g><!--SRC=[hLJDRfmm4Bxp52Yz42dx0gkgqZPfj7j8KsLLzP1UN7k0qNfjwZ4hvUrhWm6RXUHIRiRVZsU-iUc4gc66dVEpLfhNHfyXBvaao6ZS4b2oLjf7hUntvlRlTMiGJ8GW-Dk2ul04HAo2dSHAvHoKTQZCGInoR9Yo-SqzCvK-A6g0MzJg2EQ270xdHjxaZ7AEb7zoxDfM1a0jS5-WqOHMcxUUO0B-ZsmXXU-P4X9LzUtY3ZAZrR3EwsnwyO1fK9sMjVT8asQz2d_HhOMZgnbBvCmNtZ4ChJ8E5XKO5gHn5VS04YyGO68LjciQ6PoxTb27Pv0qEtlTVF49R7Fi0-ewKLZ3k4kwEeZRZBdKBip2LL2P_-7fPfkNgCGAA-cwMsq6H-wjCW4HTDHqOMrpgVMfRMPzVoxVEU8iOxySxUfK9pQkONBcMpVynZLuQFCFerszHCLC8Aun3Y7ZGSPSJK0HST91w3Z6nq171wKIGNnzAt0OYTlCuJUzBWs0k0H3a_78YlsIUS91Iq95iGm6bRhscKftcP_LU_rEvj-jWcnF1R7KwpfOYA7Huj4zGSLrj-v-gx6IkxbaT8Za2eZX22B45tkBpheVY6JmqlHxOh4MC9zcQiba4XC-pYSaWSRTB1351uVsYkS9FZivapRPpTqNZ1Y4s_IB9NxTlziEEIhD7e1k3yQc-6Laoo039TA2VYgfcG2nimz0Bf-hoLuhZSM4XUBI_QNozensfXkP_rwQVyJyOC6W_E43Dd-vNZzlDbV_tV8V]--></g></svg>